G75*
G70*
%OFA0B0*%
%FSLAX24Y24*%
%IPPOS*%
%LPD*%
%AMOC8*
5,1,8,0,0,1.08239X$1,22.5*
%
%ADD10C,0.0000*%
%ADD11C,0.0520*%
%ADD12C,0.0060*%
%ADD13OC8,0.0520*%
%ADD14C,0.0050*%
%ADD15C,0.0476*%
%ADD16R,0.0650X0.0650*%
%ADD17C,0.0650*%
%ADD18C,0.0030*%
%ADD19OC8,0.0630*%
%ADD20C,0.0600*%
%ADD21C,0.0515*%
%ADD22C,0.1122*%
%ADD23R,0.0740X0.0740*%
%ADD24C,0.0740*%
%ADD25C,0.0160*%
%ADD26C,0.0396*%
D10*
X000615Y000181D02*
X000615Y019866D01*
X020300Y019866D01*
X020300Y000181D01*
X000615Y000181D01*
D11*
X008855Y003181D02*
X009375Y003181D01*
X009375Y004181D02*
X008855Y004181D01*
X008855Y005181D02*
X009375Y005181D01*
X009375Y006181D02*
X008855Y006181D01*
X008855Y007181D02*
X009375Y007181D01*
X009375Y008181D02*
X008855Y008181D01*
X008855Y009181D02*
X009375Y009181D01*
X009375Y010181D02*
X008855Y010181D01*
X008855Y011181D02*
X009375Y011181D01*
X009375Y012181D02*
X008855Y012181D01*
X008855Y013181D02*
X009375Y013181D01*
X009375Y014181D02*
X008855Y014181D01*
X008855Y015181D02*
X009375Y015181D01*
X009375Y016181D02*
X008855Y016181D01*
X011855Y016181D02*
X012375Y016181D01*
X012375Y015181D02*
X011855Y015181D01*
X011855Y014181D02*
X012375Y014181D01*
X012375Y013181D02*
X011855Y013181D01*
X011855Y012181D02*
X012375Y012181D01*
X012375Y011181D02*
X011855Y011181D01*
X011855Y010181D02*
X012375Y010181D01*
X012375Y009181D02*
X011855Y009181D01*
X011855Y008181D02*
X012375Y008181D01*
X012375Y007181D02*
X011855Y007181D01*
X011855Y006181D02*
X012375Y006181D01*
X012375Y005181D02*
X011855Y005181D01*
X011855Y004181D02*
X012375Y004181D01*
X012375Y003181D02*
X011855Y003181D01*
D12*
X010885Y007454D02*
X010244Y007454D01*
X010244Y007774D01*
X010351Y007881D01*
X010565Y007881D01*
X010671Y007774D01*
X010671Y007454D01*
X010885Y008098D02*
X010885Y008312D01*
X010885Y008205D02*
X010244Y008205D01*
X010244Y008098D02*
X010244Y008312D01*
X010351Y008528D02*
X010778Y008528D01*
X010885Y008634D01*
X010885Y008848D01*
X010778Y008955D01*
X010778Y009172D02*
X010885Y009279D01*
X010885Y009493D01*
X010778Y009599D01*
X010671Y009599D01*
X010565Y009493D01*
X010565Y009386D01*
X010565Y009493D02*
X010458Y009599D01*
X010351Y009599D01*
X010244Y009493D01*
X010244Y009279D01*
X010351Y009172D01*
X010351Y008955D02*
X010244Y008848D01*
X010244Y008634D01*
X010351Y008528D01*
X010351Y009817D02*
X010244Y009924D01*
X010244Y010137D01*
X010351Y010244D01*
X010458Y010244D01*
X010885Y009817D01*
X010885Y010244D01*
D13*
X014115Y011181D03*
X017615Y008181D03*
X014115Y006181D03*
X017615Y003181D03*
X018115Y012181D03*
X018115Y017181D03*
X018615Y019181D03*
X019615Y019181D03*
X017615Y019181D03*
X016615Y019181D03*
X015615Y019181D03*
X014615Y019181D03*
X012615Y017681D03*
X007615Y017681D03*
X003115Y005681D03*
X003115Y000681D03*
D14*
X003939Y000549D02*
X003939Y000399D01*
X004014Y000324D01*
X004315Y000324D01*
X004014Y000625D01*
X004315Y000625D01*
X004390Y000549D01*
X004390Y000399D01*
X004315Y000324D01*
X004014Y000625D02*
X003939Y000549D01*
X004315Y000785D02*
X004315Y000860D01*
X004390Y000860D01*
X004390Y000785D01*
X004315Y000785D01*
X004390Y001015D02*
X004390Y001315D01*
X004390Y001165D02*
X003939Y001165D01*
X004090Y001015D01*
X004090Y001936D02*
X004315Y001936D01*
X004390Y002011D01*
X004390Y002236D01*
X004090Y002236D01*
X004165Y002396D02*
X004165Y002546D01*
X004390Y002396D02*
X003939Y002396D01*
X003939Y002696D01*
X003320Y003075D02*
X003320Y003376D01*
X003320Y003225D02*
X002869Y003225D01*
X003020Y003075D01*
X002944Y003536D02*
X002869Y003611D01*
X002869Y003761D01*
X002944Y003836D01*
X003245Y003536D01*
X003320Y003611D01*
X003320Y003761D01*
X003245Y003836D01*
X002944Y003836D01*
X002869Y003996D02*
X003320Y003996D01*
X003170Y003996D02*
X002869Y004296D01*
X003095Y004071D02*
X003320Y004296D01*
X003245Y003536D02*
X002944Y003536D01*
X013909Y009107D02*
X014060Y008956D01*
X013909Y009107D02*
X014360Y009107D01*
X014360Y009257D02*
X014360Y008956D01*
X014285Y009417D02*
X013984Y009417D01*
X013909Y009492D01*
X013909Y009642D01*
X013984Y009717D01*
X014285Y009417D01*
X014360Y009492D01*
X014360Y009642D01*
X014285Y009717D01*
X013984Y009717D01*
X013909Y009877D02*
X014360Y009877D01*
X014210Y009877D02*
X013909Y010177D01*
X014135Y009952D02*
X014360Y010177D01*
X017944Y014575D02*
X017869Y014650D01*
X017869Y014800D01*
X017944Y014876D01*
X018020Y014876D01*
X018095Y014800D01*
X018170Y014876D01*
X018245Y014876D01*
X018320Y014800D01*
X018320Y014650D01*
X018245Y014575D01*
X018095Y014725D02*
X018095Y014800D01*
X018245Y015036D02*
X018320Y015111D01*
X018320Y015261D01*
X018245Y015336D01*
X018170Y015336D01*
X018095Y015261D01*
X018095Y015186D01*
X018095Y015261D02*
X018020Y015336D01*
X017944Y015336D01*
X017869Y015261D01*
X017869Y015111D01*
X017944Y015036D01*
X017944Y015496D02*
X017869Y015571D01*
X017869Y015721D01*
X017944Y015796D01*
X018245Y015496D01*
X018320Y015571D01*
X018320Y015721D01*
X018245Y015796D01*
X017944Y015796D01*
X017944Y015496D02*
X018245Y015496D01*
X011480Y017426D02*
X011405Y017351D01*
X011254Y017351D01*
X011179Y017426D01*
X011480Y017727D01*
X011480Y017426D01*
X011480Y017727D02*
X011405Y017802D01*
X011254Y017802D01*
X011179Y017727D01*
X011179Y017426D01*
X011019Y017426D02*
X010944Y017351D01*
X010794Y017351D01*
X010719Y017426D01*
X010559Y017426D02*
X010484Y017351D01*
X010334Y017351D01*
X010259Y017426D01*
X010409Y017577D02*
X010484Y017577D01*
X010559Y017502D01*
X010559Y017426D01*
X010484Y017577D02*
X010559Y017652D01*
X010559Y017727D01*
X010484Y017802D01*
X010334Y017802D01*
X010259Y017727D01*
X010719Y017727D02*
X010794Y017802D01*
X010944Y017802D01*
X011019Y017727D01*
X011019Y017652D01*
X010944Y017577D01*
X011019Y017502D01*
X011019Y017426D01*
X010944Y017577D02*
X010869Y017577D01*
X007362Y015957D02*
X007061Y015957D01*
X007061Y015506D01*
X006901Y015506D02*
X006901Y015807D01*
X007061Y015732D02*
X007211Y015732D01*
X006901Y015506D02*
X006676Y015506D01*
X006601Y015581D01*
X006601Y015807D01*
X005981Y015506D02*
X005680Y015506D01*
X005830Y015506D02*
X005830Y015957D01*
X005680Y015807D01*
X005525Y015581D02*
X005450Y015581D01*
X005450Y015506D01*
X005525Y015506D01*
X005525Y015581D01*
X005290Y015581D02*
X005215Y015506D01*
X005065Y015506D01*
X004990Y015581D01*
X005290Y015882D01*
X005290Y015581D01*
X004990Y015581D02*
X004990Y015882D01*
X005065Y015957D01*
X005215Y015957D01*
X005290Y015882D01*
X005330Y017506D02*
X005330Y017957D01*
X005180Y017807D01*
X005025Y017581D02*
X005025Y017506D01*
X004950Y017506D01*
X004950Y017581D01*
X005025Y017581D01*
X005180Y017506D02*
X005481Y017506D01*
X006101Y017581D02*
X006176Y017506D01*
X006401Y017506D01*
X006401Y017807D01*
X006561Y017732D02*
X006711Y017732D01*
X006561Y017957D02*
X006862Y017957D01*
X006561Y017957D02*
X006561Y017506D01*
X006101Y017581D02*
X006101Y017807D01*
X004790Y017882D02*
X004790Y017581D01*
X004715Y017506D01*
X004565Y017506D01*
X004490Y017581D01*
X004790Y017882D01*
X004715Y017957D01*
X004565Y017957D01*
X004490Y017882D01*
X004490Y017581D01*
X014333Y000857D02*
X014483Y000857D01*
X014558Y000782D01*
X014258Y000481D01*
X014333Y000406D01*
X014483Y000406D01*
X014558Y000481D01*
X014558Y000782D01*
X014333Y000857D02*
X014258Y000782D01*
X014258Y000481D01*
X014718Y000481D02*
X014793Y000481D01*
X014793Y000406D01*
X014718Y000406D01*
X014718Y000481D01*
X014948Y000406D02*
X015248Y000406D01*
X015098Y000406D02*
X015098Y000857D01*
X014948Y000707D01*
X015869Y000707D02*
X015869Y000481D01*
X015944Y000406D01*
X016169Y000406D01*
X016169Y000707D01*
X016329Y000632D02*
X016479Y000632D01*
X016329Y000857D02*
X016329Y000406D01*
X016329Y000857D02*
X016629Y000857D01*
D15*
X007115Y004443D03*
X007115Y005192D03*
X007115Y005920D03*
D16*
X006615Y001181D03*
X015115Y011681D03*
D17*
X015115Y012681D03*
X005615Y001181D03*
D18*
X006264Y002198D02*
X006457Y002198D01*
X006558Y002246D02*
X006558Y002537D01*
X006704Y002537D01*
X006752Y002488D01*
X006752Y002392D01*
X006704Y002343D01*
X006558Y002343D01*
X006853Y002295D02*
X006853Y002488D01*
X006901Y002537D01*
X006998Y002537D01*
X007046Y002488D01*
X007046Y002295D01*
X006998Y002246D01*
X006901Y002246D01*
X006853Y002295D01*
X007148Y002246D02*
X007341Y002246D01*
X007148Y002246D02*
X007148Y002537D01*
X006163Y002488D02*
X006163Y002392D01*
X006114Y002343D01*
X005969Y002343D01*
X005969Y002246D02*
X005969Y002537D01*
X006114Y002537D01*
X006163Y002488D01*
X005868Y002440D02*
X005868Y002246D01*
X005868Y002392D02*
X005674Y002392D01*
X005674Y002440D02*
X005674Y002246D01*
X005573Y002295D02*
X005525Y002246D01*
X005428Y002246D01*
X005380Y002295D01*
X005380Y002488D01*
X005428Y002537D01*
X005525Y002537D01*
X005573Y002488D01*
X005674Y002440D02*
X005771Y002537D01*
X005868Y002440D01*
X013060Y002363D02*
X013060Y002170D01*
X013060Y002363D02*
X013108Y002363D01*
X013301Y002170D01*
X013350Y002170D01*
X013350Y002068D02*
X013350Y001875D01*
X013350Y001972D02*
X013060Y001972D01*
X013156Y001875D01*
X013350Y001774D02*
X013350Y001580D01*
X013350Y001677D02*
X013060Y001677D01*
X013156Y001580D01*
X013350Y001479D02*
X013350Y001286D01*
X013350Y001382D02*
X013060Y001382D01*
X013156Y001286D01*
X013108Y001185D02*
X013060Y001136D01*
X013060Y000991D01*
X013350Y000991D01*
X013350Y001136D01*
X013301Y001185D01*
X013108Y001185D01*
X013350Y000890D02*
X013350Y000696D01*
X013060Y000696D01*
X013728Y010884D02*
X013680Y010932D01*
X013680Y011029D01*
X013728Y011077D01*
X013776Y011179D02*
X013680Y011275D01*
X013776Y011372D01*
X013970Y011372D01*
X013970Y011473D02*
X013680Y011473D01*
X013680Y011618D01*
X013728Y011667D01*
X013825Y011667D01*
X013873Y011618D01*
X013873Y011473D01*
X013825Y011372D02*
X013825Y011179D01*
X013776Y011179D02*
X013970Y011179D01*
X013921Y011077D02*
X013970Y011029D01*
X013970Y010932D01*
X013921Y010884D01*
X013728Y010884D01*
X014018Y011768D02*
X014018Y011961D01*
X013970Y012062D02*
X013680Y012062D01*
X013680Y012208D01*
X013728Y012256D01*
X013825Y012256D01*
X013873Y012208D01*
X013873Y012062D01*
X013921Y012357D02*
X013728Y012357D01*
X013680Y012405D01*
X013680Y012502D01*
X013728Y012551D01*
X013921Y012551D01*
X013970Y012502D01*
X013970Y012405D01*
X013921Y012357D01*
X013970Y012652D02*
X013970Y012845D01*
X013970Y012652D02*
X013680Y012652D01*
D19*
X006115Y016681D03*
X005115Y016681D03*
X005615Y018681D03*
X004615Y018681D03*
X004615Y004181D03*
X004615Y003181D03*
X017115Y002181D03*
X017115Y001181D03*
D20*
X011615Y000881D02*
X011615Y001481D01*
X010615Y001481D02*
X010615Y000881D01*
X009615Y000881D02*
X009615Y001481D01*
D21*
X003715Y016981D03*
X003715Y017681D03*
X003095Y017351D03*
X003095Y018041D03*
X003715Y018351D03*
D22*
X001615Y019118D03*
X001615Y016244D03*
D23*
X001115Y014181D03*
X004615Y014681D03*
X009115Y019181D03*
X013115Y019181D03*
X019615Y009181D03*
X019615Y004181D03*
X001115Y004181D03*
X001115Y009181D03*
D24*
X001115Y008181D03*
X001115Y007181D03*
X001115Y006181D03*
X001115Y003181D03*
X001115Y002181D03*
X001115Y001181D03*
X004615Y010681D03*
X004615Y011681D03*
X004615Y012681D03*
X004615Y013681D03*
X001115Y013181D03*
X001115Y012181D03*
X001115Y011181D03*
X007115Y019181D03*
X008115Y019181D03*
X011115Y019181D03*
X012115Y019181D03*
X019615Y008181D03*
X019615Y007181D03*
X019615Y006181D03*
X019615Y003181D03*
X019615Y002181D03*
X019615Y001181D03*
D25*
X017115Y001181D02*
X014615Y001181D01*
X012115Y003181D01*
X012115Y001681D01*
X011615Y001181D01*
X010615Y001181D02*
X010615Y002681D01*
X009115Y004181D01*
X011115Y007181D01*
X011115Y010181D01*
X012115Y011181D01*
X011115Y011681D01*
X011115Y015681D01*
X012115Y016181D01*
X011615Y016681D01*
X009115Y016681D01*
X007615Y017681D01*
X007115Y017181D02*
X007115Y019181D01*
X005615Y018681D02*
X005615Y017181D01*
X006115Y016681D01*
X005615Y016181D02*
X005615Y014181D01*
X005115Y013681D01*
X004615Y013681D01*
X003115Y015181D02*
X003115Y005681D01*
X004615Y004181D02*
X005115Y004181D01*
X006615Y002681D01*
X008115Y004181D01*
X009115Y004181D01*
X007615Y004681D02*
X007615Y006181D01*
X009115Y007181D01*
X009115Y008181D02*
X007115Y006681D01*
X007115Y005920D01*
X007615Y004681D02*
X007377Y004443D01*
X007115Y004443D01*
X006615Y002681D02*
X006615Y001181D01*
X012115Y007181D02*
X017115Y002181D01*
X013615Y006681D02*
X013615Y009181D01*
X013615Y010181D02*
X013615Y012181D01*
X013115Y012681D02*
X012615Y012181D01*
X013115Y011681D01*
X013115Y007681D01*
X010615Y008681D02*
X007115Y008681D01*
X006615Y009181D01*
X006615Y013681D01*
X007115Y014181D01*
X007115Y016681D01*
X006615Y017181D01*
X006615Y017681D01*
X007115Y017181D02*
X007615Y016681D01*
X008115Y016681D01*
X009115Y016181D01*
X009115Y015181D02*
X007115Y013681D01*
X007115Y009681D01*
X007615Y011181D02*
X007615Y013181D01*
X009115Y014181D01*
X012115Y012181D02*
X012615Y012181D01*
X013115Y012681D02*
X013115Y017181D01*
X011115Y017181D02*
X011115Y019181D01*
X005615Y016181D02*
X005115Y016681D01*
X004615Y017181D01*
X004615Y018681D01*
X003715Y018351D02*
X003115Y019181D01*
X002615Y019181D01*
X002115Y018181D01*
X002115Y017181D01*
X003615Y015681D01*
X002615Y013181D02*
X002615Y008681D01*
X002115Y010181D02*
X002115Y012181D01*
X004615Y010681D02*
X004615Y009181D01*
X016115Y009181D02*
X016115Y013181D01*
X018615Y011181D02*
X019615Y012181D01*
X019615Y019181D01*
X018115Y018681D02*
X018115Y017181D01*
X018115Y018681D02*
X017615Y019181D01*
X018615Y011181D02*
X018615Y008681D01*
X017615Y008181D01*
D26*
X016115Y009181D03*
X013615Y009181D03*
X013615Y010181D03*
X013615Y012181D03*
X016115Y013181D03*
X013115Y017181D03*
X011115Y017181D03*
X006615Y017681D03*
X003615Y015681D03*
X003115Y015181D03*
X002615Y013181D03*
X002115Y012181D03*
X002115Y010181D03*
X002615Y008681D03*
X004615Y009181D03*
X007115Y009681D03*
X007615Y011181D03*
X010615Y008681D03*
X013115Y007681D03*
X013615Y006681D03*
M02*
