G75*
G70*
%OFA0B0*%
%FSLAX24Y24*%
%IPPOS*%
%LPD*%
%AMOC8*
5,1,8,0,0,1.08239X$1,22.5*
%
%ADD10C,0.0000*%
%ADD11C,0.0040*%
%ADD12C,0.0050*%
D10*
X000615Y000181D02*
X000615Y019866D01*
X020300Y019866D01*
X020300Y000181D01*
X000615Y000181D01*
D11*
X001825Y018701D02*
X001979Y018701D01*
X002056Y018778D01*
X002056Y018932D02*
X001902Y019008D01*
X001825Y019008D01*
X001749Y018932D01*
X001749Y018778D01*
X001825Y018701D01*
X002056Y018932D02*
X002056Y019162D01*
X001749Y019162D01*
X002362Y019162D02*
X002362Y018701D01*
X002209Y018701D02*
X002516Y018701D01*
X002669Y018778D02*
X002746Y018701D01*
X002900Y018701D01*
X002976Y018778D01*
X002669Y019085D01*
X002669Y018778D01*
X002516Y019008D02*
X002362Y019162D01*
X002669Y019085D02*
X002746Y019162D01*
X002900Y019162D01*
X002976Y019085D01*
X002976Y018778D01*
X003130Y018701D02*
X003437Y018701D01*
X003130Y019008D01*
X003130Y019085D01*
X003206Y019162D01*
X003360Y019162D01*
X003437Y019085D01*
X004050Y018701D02*
X004357Y018701D01*
X004357Y019162D01*
X004511Y019162D02*
X004664Y019162D01*
X004587Y019162D02*
X004587Y018701D01*
X004511Y018701D02*
X004664Y018701D01*
X004818Y018701D02*
X004971Y018855D01*
X004894Y018855D02*
X005125Y018855D01*
X005125Y018701D02*
X005125Y019162D01*
X004894Y019162D01*
X004818Y019085D01*
X004818Y018932D01*
X004894Y018855D01*
X005278Y018932D02*
X005355Y018855D01*
X005585Y018855D01*
X005585Y018701D02*
X005585Y019162D01*
X005355Y019162D01*
X005278Y019085D01*
X005278Y018932D01*
X005738Y018932D02*
X006045Y018932D01*
X006045Y019008D02*
X006045Y018701D01*
X005738Y018701D02*
X005738Y019008D01*
X005892Y019162D01*
X006045Y019008D01*
X013877Y018932D02*
X013954Y018855D01*
X014184Y018855D01*
X014031Y018855D02*
X013877Y018701D01*
X013877Y018932D02*
X013877Y019085D01*
X013954Y019162D01*
X014184Y019162D01*
X014184Y018701D01*
X014338Y018701D02*
X014645Y018701D01*
X014645Y019162D01*
X014338Y019162D01*
X014491Y018932D02*
X014645Y018932D01*
X014798Y018701D02*
X015105Y018701D01*
X015105Y019162D01*
X015259Y019085D02*
X015335Y019162D01*
X015489Y019162D01*
X015565Y019085D01*
X015565Y019008D01*
X015489Y018932D01*
X015335Y018932D01*
X015259Y018855D01*
X015259Y018778D01*
X015335Y018701D01*
X015489Y018701D01*
X015565Y018778D01*
X015719Y018701D02*
X016026Y018701D01*
X016026Y019162D01*
X015719Y019162D01*
X015872Y018932D02*
X016026Y018932D01*
X016179Y019162D02*
X016179Y018701D01*
X016486Y019162D01*
X016486Y018701D01*
X017100Y018778D02*
X017177Y018701D01*
X017330Y018701D01*
X017407Y018778D01*
X017560Y018701D02*
X017714Y018701D01*
X017637Y018701D02*
X017637Y019162D01*
X017714Y019162D02*
X017560Y019162D01*
X017407Y019085D02*
X017407Y019008D01*
X017330Y018932D01*
X017177Y018932D01*
X017100Y018855D01*
X017100Y018778D01*
X017100Y019085D02*
X017177Y019162D01*
X017330Y019162D01*
X017407Y019085D01*
X017867Y019085D02*
X017867Y018932D01*
X017944Y018855D01*
X018174Y018855D01*
X018021Y018855D02*
X017867Y018701D01*
X018174Y018701D02*
X018174Y019162D01*
X017944Y019162D01*
X017867Y019085D01*
X018328Y019162D02*
X018328Y018701D01*
X018328Y018932D02*
X018634Y018932D01*
X018788Y019085D02*
X018865Y019162D01*
X019018Y019162D01*
X019095Y019085D01*
X019095Y018778D01*
X019018Y018701D01*
X018865Y018701D01*
X018788Y018778D01*
X018634Y018701D02*
X018634Y019162D01*
D12*
X003682Y019217D02*
X003682Y016146D01*
X000138Y016146D01*
X000138Y019217D01*
X003682Y019217D01*
X002304Y017977D02*
X002304Y017386D01*
X000335Y017189D01*
X000335Y016894D02*
X002107Y017091D01*
X002107Y016303D02*
X000335Y016500D01*
X000335Y016894D01*
X000335Y018174D02*
X002304Y017977D01*
X001910Y018272D02*
X000335Y018469D01*
X000335Y018863D01*
X001910Y019059D01*
M02*
