%
M48
M72
T01C0.0236
T02C0.0276
T03C0.0315
T04C0.0320
T05C0.0400
T06C0.0748
%
T01
X2615Y8681
X2115Y10181
X2115Y12181
X2615Y13181
X3115Y15181
X7615Y11181
X7115Y9681
X4615Y9181
X11115Y17181
X13115Y17181
X16115Y13181
X13615Y12181
X13615Y10181
X13115Y7681
X16115Y9181
T02
X5615Y1181
X6615Y1181
X7115Y4443
X7115Y5192
X7115Y5920
X15115Y11681
X15115Y12681
T03
X3095Y18041
X3095Y17351
X3715Y17681
X3715Y16981
X3715Y18351
T04
X4615Y18681
X5615Y18681
X6115Y16681
X5115Y16681
X7615Y17681
X9115Y16181
X9115Y15181
X9115Y14181
X9115Y13181
X9115Y12181
X9115Y11181
X9115Y10181
X9115Y9181
X9115Y8181
X9115Y7181
X9115Y6181
X9115Y5181
X9115Y4181
X9115Y3181
X12115Y3181
X12115Y4181
X12115Y5181
X12115Y6181
X12115Y7181
X12115Y8181
X12115Y9181
X12115Y10181
X12115Y11181
X12115Y12181
X12115Y13181
X12115Y14181
X12115Y15181
X12115Y16181
X12615Y17681
X14615Y19181
X15615Y19181
X16615Y19181
X17615Y19181
X18615Y19181
X19615Y19181
X18115Y17181
X18115Y12181
X14115Y11181
X17615Y8181
X14115Y6181
X17615Y3181
X17115Y2181
X17115Y1181
X4615Y3181
X4615Y4181
X3115Y5681
X3115Y681
T05
X1115Y1181
X1115Y2181
X1115Y3181
X1115Y4181
X1115Y6181
X1115Y7181
X1115Y8181
X1115Y9181
X1115Y11181
X1115Y12181
X1115Y13181
X1115Y14181
X4615Y13681
X4615Y12681
X4615Y11681
X4615Y10681
X4615Y14681
X7115Y19181
X8115Y19181
X9115Y19181
X11115Y19181
X12115Y19181
X13115Y19181
X19615Y9181
X19615Y8181
X19615Y7181
X19615Y6181
X19615Y4181
X19615Y3181
X19615Y2181
X19615Y1181
X11615Y1181
X10615Y1181
X9615Y1181
T06
X1615Y16244
X1615Y19118
M30
