G75*
G70*
%OFA0B0*%
%FSLAX24Y24*%
%IPPOS*%
%LPD*%
%AMOC8*
5,1,8,0,0,1.08239X$1,22.5*
%
%ADD10C,0.0000*%
%ADD11C,0.0520*%
%ADD12OC8,0.0520*%
%ADD13C,0.0476*%
%ADD14R,0.0650X0.0650*%
%ADD15C,0.0650*%
%ADD16OC8,0.0630*%
%ADD17C,0.0600*%
%ADD18C,0.0515*%
%ADD19C,0.1122*%
%ADD20R,0.0740X0.0740*%
%ADD21C,0.0740*%
%ADD22C,0.0160*%
%ADD23C,0.0396*%
D10*
X000615Y000181D02*
X000615Y019866D01*
X020300Y019866D01*
X020300Y000181D01*
X000615Y000181D01*
D11*
X008855Y003181D02*
X009375Y003181D01*
X009375Y004181D02*
X008855Y004181D01*
X008855Y005181D02*
X009375Y005181D01*
X009375Y006181D02*
X008855Y006181D01*
X008855Y007181D02*
X009375Y007181D01*
X009375Y008181D02*
X008855Y008181D01*
X008855Y009181D02*
X009375Y009181D01*
X009375Y010181D02*
X008855Y010181D01*
X008855Y011181D02*
X009375Y011181D01*
X009375Y012181D02*
X008855Y012181D01*
X008855Y013181D02*
X009375Y013181D01*
X009375Y014181D02*
X008855Y014181D01*
X008855Y015181D02*
X009375Y015181D01*
X009375Y016181D02*
X008855Y016181D01*
X011855Y016181D02*
X012375Y016181D01*
X012375Y015181D02*
X011855Y015181D01*
X011855Y014181D02*
X012375Y014181D01*
X012375Y013181D02*
X011855Y013181D01*
X011855Y012181D02*
X012375Y012181D01*
X012375Y011181D02*
X011855Y011181D01*
X011855Y010181D02*
X012375Y010181D01*
X012375Y009181D02*
X011855Y009181D01*
X011855Y008181D02*
X012375Y008181D01*
X012375Y007181D02*
X011855Y007181D01*
X011855Y006181D02*
X012375Y006181D01*
X012375Y005181D02*
X011855Y005181D01*
X011855Y004181D02*
X012375Y004181D01*
X012375Y003181D02*
X011855Y003181D01*
D12*
X014115Y006181D03*
X017615Y008181D03*
X014115Y011181D03*
X018115Y012181D03*
X018115Y017181D03*
X018615Y019181D03*
X019615Y019181D03*
X017615Y019181D03*
X016615Y019181D03*
X015615Y019181D03*
X014615Y019181D03*
X012615Y017681D03*
X007615Y017681D03*
X003115Y005681D03*
X003115Y000681D03*
X017615Y003181D03*
D13*
X007115Y004443D03*
X007115Y005192D03*
X007115Y005920D03*
D14*
X006615Y001181D03*
X015115Y011681D03*
D15*
X015115Y012681D03*
X005615Y001181D03*
D16*
X004615Y003181D03*
X004615Y004181D03*
X017115Y002181D03*
X017115Y001181D03*
X006115Y016681D03*
X005115Y016681D03*
X005615Y018681D03*
X004615Y018681D03*
D17*
X009615Y001481D02*
X009615Y000881D01*
X010615Y000881D02*
X010615Y001481D01*
X011615Y001481D02*
X011615Y000881D01*
D18*
X003715Y016981D03*
X003715Y017681D03*
X003095Y017351D03*
X003095Y018041D03*
X003715Y018351D03*
D19*
X001615Y019118D03*
X001615Y016244D03*
D20*
X001115Y014181D03*
X004615Y014681D03*
X009115Y019181D03*
X013115Y019181D03*
X019615Y009181D03*
X019615Y004181D03*
X001115Y004181D03*
X001115Y009181D03*
D21*
X001115Y008181D03*
X001115Y007181D03*
X001115Y006181D03*
X001115Y003181D03*
X001115Y002181D03*
X001115Y001181D03*
X004615Y010681D03*
X004615Y011681D03*
X004615Y012681D03*
X004615Y013681D03*
X001115Y013181D03*
X001115Y012181D03*
X001115Y011181D03*
X007115Y019181D03*
X008115Y019181D03*
X011115Y019181D03*
X012115Y019181D03*
X019615Y008181D03*
X019615Y007181D03*
X019615Y006181D03*
X019615Y003181D03*
X019615Y002181D03*
X019615Y001181D03*
D22*
X017115Y001181D01*
X014615Y001181D01*
X012115Y003181D01*
X012256Y002761D02*
X011771Y002761D01*
X011617Y002825D01*
X011499Y002944D01*
X011435Y003098D01*
X011435Y003265D01*
X011499Y003419D01*
X011617Y003537D01*
X011771Y003601D01*
X012458Y003601D01*
X012613Y003537D01*
X012731Y003419D01*
X012795Y003265D01*
X012795Y003098D01*
X012747Y002983D01*
X014699Y001421D01*
X016683Y001421D01*
X016918Y001656D01*
X017312Y001656D01*
X017547Y001421D01*
X019141Y001421D01*
X019165Y001482D01*
X019315Y001631D01*
X019409Y001670D01*
X019404Y001672D01*
X019327Y001711D01*
X019256Y001762D01*
X019195Y001823D01*
X019144Y001893D01*
X019105Y001970D01*
X019078Y002053D01*
X019065Y002138D01*
X019065Y002161D01*
X019595Y002161D01*
X019595Y002201D01*
X019065Y002201D01*
X019065Y002225D01*
X019078Y002310D01*
X019105Y002393D01*
X019144Y002470D01*
X019195Y002540D01*
X019256Y002601D01*
X019327Y002652D01*
X019404Y002691D01*
X019409Y002693D01*
X019315Y002732D01*
X019165Y002881D01*
X019141Y002941D01*
X017969Y002941D01*
X017789Y002761D01*
X017441Y002761D01*
X017261Y002941D01*
X013663Y002941D01*
X013567Y002941D01*
X013479Y002978D01*
X012622Y003835D01*
X012613Y003825D01*
X012458Y003761D01*
X011771Y003761D01*
X011617Y003825D01*
X011499Y003944D01*
X011435Y004098D01*
X011435Y004265D01*
X011499Y004419D01*
X011617Y004537D01*
X011771Y004601D01*
X012458Y004601D01*
X012613Y004537D01*
X012731Y004419D01*
X012744Y004388D01*
X012751Y004385D01*
X012818Y004317D01*
X013714Y003421D01*
X017261Y003421D01*
X017441Y003601D01*
X017789Y003601D01*
X017969Y003421D01*
X019141Y003421D01*
X019165Y003482D01*
X019315Y003631D01*
X019365Y003651D01*
X019179Y003651D01*
X019085Y003745D01*
X019085Y003941D01*
X013567Y003941D01*
X013479Y003978D01*
X013411Y004045D01*
X012622Y004835D01*
X012613Y004825D01*
X012458Y004761D01*
X011771Y004761D01*
X011617Y004825D01*
X011499Y004944D01*
X011435Y005098D01*
X011435Y005265D01*
X011499Y005419D01*
X011617Y005537D01*
X011771Y005601D01*
X012458Y005601D01*
X012613Y005537D01*
X012731Y005419D01*
X012744Y005388D01*
X012751Y005385D01*
X013714Y004421D01*
X019085Y004421D01*
X019085Y004618D01*
X019179Y004711D01*
X019820Y004711D01*
X019820Y005693D01*
X019720Y005651D01*
X019509Y005651D01*
X019449Y005676D01*
X018751Y004978D01*
X018663Y004941D01*
X018567Y004941D01*
X013567Y004941D01*
X013479Y004978D01*
X013411Y005045D01*
X012622Y005835D01*
X012613Y005825D01*
X012458Y005761D01*
X011771Y005761D01*
X011617Y005825D01*
X011499Y005944D01*
X011435Y006098D01*
X011435Y006265D01*
X011499Y006419D01*
X011617Y006537D01*
X011771Y006601D01*
X012458Y006601D01*
X012613Y006537D01*
X012731Y006419D01*
X012744Y006388D01*
X012751Y006385D01*
X013714Y005421D01*
X018515Y005421D01*
X019110Y006016D01*
X019085Y006076D01*
X019085Y006287D01*
X019165Y006482D01*
X019315Y006631D01*
X019437Y006681D01*
X019315Y006732D01*
X019165Y006881D01*
X019141Y006941D01*
X015214Y006941D01*
X014535Y006262D01*
X014535Y006007D01*
X014289Y005761D01*
X013941Y005761D01*
X013695Y006007D01*
X013695Y006355D01*
X013941Y006601D01*
X014195Y006601D01*
X014775Y007181D01*
X014515Y007441D01*
X013381Y007441D01*
X013318Y007378D01*
X013186Y007323D01*
X013044Y007323D01*
X012912Y007378D01*
X012811Y007479D01*
X012757Y007610D01*
X012757Y007753D01*
X012811Y007884D01*
X012912Y007985D01*
X013044Y008039D01*
X013186Y008039D01*
X013318Y007985D01*
X013381Y007921D01*
X014567Y007921D01*
X014663Y007921D01*
X014751Y007885D01*
X015214Y007421D01*
X019141Y007421D01*
X019165Y007482D01*
X019315Y007631D01*
X019437Y007681D01*
X019315Y007732D01*
X019165Y007881D01*
X019141Y007941D01*
X018663Y007941D01*
X018567Y007941D01*
X018479Y007978D01*
X017515Y008941D01*
X016381Y008941D01*
X016318Y008878D01*
X016186Y008823D01*
X016044Y008823D01*
X015912Y008878D01*
X015811Y008979D01*
X015757Y009110D01*
X015757Y009253D01*
X015811Y009384D01*
X015912Y009485D01*
X016044Y009539D01*
X016186Y009539D01*
X016318Y009485D01*
X016381Y009421D01*
X017567Y009421D01*
X017663Y009421D01*
X017751Y009385D01*
X018714Y008421D01*
X019141Y008421D01*
X019165Y008482D01*
X019315Y008631D01*
X019365Y008651D01*
X019179Y008651D01*
X019085Y008745D01*
X019085Y009372D01*
X017979Y010478D01*
X017911Y010545D01*
X017875Y010634D01*
X017875Y011827D01*
X017695Y012007D01*
X017695Y012341D01*
X016495Y013941D01*
X012729Y013941D01*
X012613Y013825D01*
X012458Y013761D01*
X011771Y013761D01*
X011617Y013825D01*
X011499Y013944D01*
X011435Y014098D01*
X011435Y014265D01*
X011499Y014419D01*
X011617Y014537D01*
X011771Y014601D01*
X012458Y014601D01*
X012613Y014537D01*
X012729Y014421D01*
X016585Y014421D01*
X016601Y014426D01*
X016632Y014421D01*
X016663Y014421D01*
X016679Y014415D01*
X016696Y014412D01*
X016722Y014397D01*
X016751Y014385D01*
X016763Y014372D01*
X016778Y014364D01*
X016797Y014339D01*
X016818Y014317D01*
X016825Y014301D01*
X018100Y012601D01*
X018289Y012601D01*
X018535Y012355D01*
X018535Y012007D01*
X018355Y011827D01*
X018355Y010781D01*
X019424Y009711D01*
X019820Y009711D01*
X019820Y018793D01*
X019789Y018761D01*
X019441Y018761D01*
X019195Y019007D01*
X019195Y019355D01*
X019226Y019386D01*
X019032Y019386D01*
X019055Y019364D01*
X019055Y019182D01*
X018615Y019182D01*
X018615Y019181D01*
X018615Y018741D01*
X018797Y018741D01*
X019055Y018999D01*
X019055Y019181D01*
X018615Y019181D01*
X018615Y019181D01*
X018615Y018741D01*
X018433Y018741D01*
X018175Y018999D01*
X018175Y019181D01*
X018614Y019181D01*
X018614Y019182D01*
X018175Y019182D01*
X018175Y019364D01*
X018198Y019386D01*
X018004Y019386D01*
X018035Y019355D01*
X018035Y019007D01*
X017789Y018761D01*
X017441Y018761D01*
X017195Y019007D01*
X017195Y019355D01*
X017226Y019386D01*
X017032Y019386D01*
X017055Y019364D01*
X017055Y019182D01*
X016615Y019182D01*
X016615Y019181D01*
X016615Y018741D01*
X016797Y018741D01*
X017055Y018999D01*
X017055Y019181D01*
X016615Y019181D01*
X016615Y019181D01*
X016615Y018741D01*
X016433Y018741D01*
X016175Y018999D01*
X016175Y019181D01*
X016614Y019181D01*
X016614Y019182D01*
X016175Y019182D01*
X016175Y019364D01*
X016198Y019386D01*
X016004Y019386D01*
X016035Y019355D01*
X016035Y019007D01*
X015789Y018761D01*
X015534Y018761D01*
X014751Y017978D01*
X014663Y017941D01*
X014567Y017941D01*
X013214Y017941D01*
X013035Y017762D01*
X013035Y017536D01*
X013044Y017539D01*
X013186Y017539D01*
X013318Y017485D01*
X013418Y017384D01*
X013473Y017253D01*
X013473Y017110D01*
X013418Y016979D01*
X013318Y016878D01*
X013186Y016823D01*
X013044Y016823D01*
X012912Y016878D01*
X012848Y016941D01*
X011381Y016941D01*
X011318Y016878D01*
X011186Y016823D01*
X011044Y016823D01*
X010912Y016878D01*
X010855Y016935D01*
X010855Y013738D01*
X011263Y012921D01*
X011521Y012921D01*
X011499Y012944D01*
X011435Y013098D01*
X011435Y013265D01*
X011499Y013419D01*
X011617Y013537D01*
X011771Y013601D01*
X012458Y013601D01*
X012613Y013537D01*
X012729Y013421D01*
X013515Y013421D01*
X013911Y013817D01*
X013911Y013817D01*
X013979Y013885D01*
X014067Y013921D01*
X015567Y013921D01*
X015663Y013921D01*
X015751Y013885D01*
X016096Y013539D01*
X016186Y013539D01*
X016318Y013485D01*
X016418Y013384D01*
X016473Y013253D01*
X016473Y013110D01*
X016418Y012979D01*
X016318Y012878D01*
X016186Y012823D01*
X016044Y012823D01*
X015912Y012878D01*
X015811Y012979D01*
X015757Y013110D01*
X015757Y013200D01*
X015515Y013441D01*
X014214Y013441D01*
X013751Y012978D01*
X013663Y012941D01*
X013567Y012941D01*
X012729Y012941D01*
X012709Y012921D01*
X013067Y012921D01*
X013163Y012921D01*
X013251Y012885D01*
X013596Y012539D01*
X013686Y012539D01*
X013818Y012485D01*
X013918Y012384D01*
X013973Y012253D01*
X013973Y012110D01*
X013918Y011979D01*
X013861Y011921D01*
X014630Y011921D01*
X014630Y012073D01*
X014724Y012166D01*
X015506Y012166D01*
X015600Y012073D01*
X015600Y011290D01*
X015506Y011196D01*
X014724Y011196D01*
X014630Y011290D01*
X014630Y011441D01*
X014449Y011441D01*
X014535Y011355D01*
X014535Y011007D01*
X014289Y010761D01*
X013941Y010761D01*
X013761Y010941D01*
X012729Y010941D01*
X012613Y010825D01*
X012458Y010761D01*
X011771Y010761D01*
X011617Y010825D01*
X011499Y010944D01*
X011435Y011098D01*
X011435Y011162D01*
X011355Y011082D01*
X011355Y008830D01*
X011811Y008601D01*
X012458Y008601D01*
X012613Y008537D01*
X012731Y008419D01*
X012795Y008265D01*
X012795Y008098D01*
X012731Y007944D01*
X012613Y007825D01*
X012458Y007761D01*
X011771Y007761D01*
X011617Y007825D01*
X011499Y007944D01*
X011435Y008098D01*
X011435Y008253D01*
X011015Y008463D01*
X010979Y008478D01*
X010973Y008484D01*
X010965Y008488D01*
X010939Y008518D01*
X010911Y008545D01*
X010908Y008554D01*
X010902Y008560D01*
X010890Y008598D01*
X010875Y008634D01*
X010875Y008642D01*
X010872Y008651D01*
X010875Y008690D01*
X010875Y011229D01*
X010911Y011317D01*
X010979Y011385D01*
X011479Y011885D01*
X011534Y011908D01*
X011499Y011944D01*
X011435Y012098D01*
X011435Y012265D01*
X011499Y012419D01*
X011521Y012441D01*
X011123Y012441D01*
X011084Y012439D01*
X011076Y012441D01*
X011067Y012441D01*
X011031Y012456D01*
X010994Y012469D01*
X010987Y012475D01*
X010979Y012478D01*
X010951Y012506D01*
X010921Y012531D01*
X010918Y012539D01*
X010911Y012545D01*
X010896Y012582D01*
X010418Y013539D01*
X010411Y013545D01*
X010396Y013582D01*
X010379Y013617D01*
X010378Y013626D01*
X010375Y013634D01*
X010375Y013673D01*
X010372Y013712D01*
X010375Y013720D01*
X010375Y017582D01*
X010015Y017941D01*
X007949Y017941D01*
X008035Y017855D01*
X008035Y017507D01*
X007789Y017261D01*
X007534Y017261D01*
X007318Y017045D01*
X007251Y016978D01*
X007163Y016941D01*
X006555Y016941D01*
X006610Y016886D01*
X006610Y016682D01*
X006115Y016682D01*
X006115Y016681D01*
X006115Y016186D01*
X006320Y016186D01*
X006610Y016476D01*
X006610Y016681D01*
X006115Y016681D01*
X006115Y016681D01*
X006115Y016186D01*
X005910Y016186D01*
X005620Y016476D01*
X005620Y016681D01*
X006114Y016681D01*
X006114Y016682D01*
X005620Y016682D01*
X005620Y016847D01*
X005590Y016817D01*
X005590Y016485D01*
X005312Y016206D01*
X004918Y016206D01*
X004640Y016485D01*
X004640Y016878D01*
X004918Y017156D01*
X005250Y017156D01*
X005411Y017317D01*
X005479Y017385D01*
X005567Y017421D01*
X007015Y017421D01*
X007195Y017601D01*
X007195Y017855D01*
X007281Y017941D01*
X007067Y017941D01*
X006979Y017978D01*
X006911Y018045D01*
X006110Y018847D01*
X006110Y018682D01*
X005615Y018682D01*
X005615Y018682D01*
X005615Y019176D01*
X005780Y019176D01*
X005570Y019386D01*
X004159Y019386D01*
X003352Y018579D01*
X003351Y018565D01*
X003361Y018588D01*
X003478Y018705D01*
X003632Y018769D01*
X003798Y018769D01*
X003951Y018705D01*
X004069Y018588D01*
X004132Y018434D01*
X004132Y018268D01*
X004069Y018115D01*
X003970Y018016D01*
X004069Y017918D01*
X004132Y017764D01*
X004132Y017598D01*
X004069Y017445D01*
X003964Y017341D01*
X004000Y017315D01*
X004048Y017266D01*
X004089Y017211D01*
X004120Y017149D01*
X004141Y017084D01*
X004152Y017016D01*
X004152Y016982D01*
X003715Y016982D01*
X003715Y016981D01*
X003715Y016544D01*
X003749Y016544D01*
X003817Y016555D01*
X003883Y016576D01*
X003944Y016607D01*
X004000Y016648D01*
X004048Y016696D01*
X004089Y016752D01*
X004120Y016813D01*
X004141Y016879D01*
X004152Y016947D01*
X004152Y016981D01*
X003715Y016981D01*
X003715Y016981D01*
X003715Y016544D01*
X003680Y016544D01*
X003612Y016555D01*
X003547Y016576D01*
X003486Y016607D01*
X003430Y016648D01*
X003381Y016696D01*
X003341Y016752D01*
X003309Y016813D01*
X003288Y016879D01*
X003277Y016947D01*
X003277Y016975D01*
X003178Y016934D01*
X003012Y016934D01*
X002858Y016997D01*
X002741Y017115D01*
X002677Y017268D01*
X002677Y017434D01*
X002741Y017588D01*
X002849Y017696D01*
X002741Y017805D01*
X002677Y017958D01*
X002677Y018124D01*
X002741Y018278D01*
X002858Y018395D01*
X002866Y018398D01*
X002875Y018685D01*
X002875Y018729D01*
X002876Y018733D01*
X002876Y018737D01*
X002894Y018777D01*
X002911Y018817D01*
X002914Y018820D01*
X002916Y018824D01*
X002947Y018853D01*
X003480Y019386D01*
X002284Y019386D01*
X002336Y019262D01*
X002336Y018975D01*
X002226Y018710D01*
X002023Y018507D01*
X001758Y018397D01*
X001471Y018397D01*
X001206Y018507D01*
X001095Y018619D01*
X001095Y016744D01*
X001206Y016856D01*
X001471Y016965D01*
X001758Y016965D01*
X002023Y016856D01*
X002226Y016653D01*
X002336Y016388D01*
X002336Y016101D01*
X002226Y015836D01*
X002023Y015633D01*
X001758Y015523D01*
X001471Y015523D01*
X001206Y015633D01*
X001095Y015745D01*
X001095Y014711D01*
X001551Y014711D01*
X001645Y014618D01*
X001645Y014421D01*
X002015Y014421D01*
X002757Y015163D01*
X002757Y015253D01*
X002811Y015384D01*
X002912Y015485D01*
X003044Y015539D01*
X003186Y015539D01*
X003318Y015485D01*
X003381Y015421D01*
X004067Y015421D01*
X004163Y015421D01*
X004251Y015385D01*
X004424Y015211D01*
X004805Y015211D01*
X004911Y015317D01*
X004979Y015385D01*
X005067Y015421D01*
X007542Y015421D01*
X008461Y016034D01*
X008435Y016098D01*
X008435Y016265D01*
X008499Y016419D01*
X008617Y016537D01*
X008771Y016601D01*
X009458Y016601D01*
X009613Y016537D01*
X009731Y016419D01*
X009795Y016265D01*
X009795Y016098D01*
X009731Y015944D01*
X009613Y015825D01*
X009458Y015761D01*
X008917Y015761D01*
X007768Y014995D01*
X007751Y014978D01*
X007728Y014969D01*
X007708Y014955D01*
X007685Y014951D01*
X007663Y014941D01*
X007638Y014941D01*
X007614Y014937D01*
X007591Y014941D01*
X005214Y014941D01*
X005145Y014872D01*
X005145Y014245D01*
X005051Y014151D01*
X004865Y014151D01*
X004915Y014131D01*
X005064Y013982D01*
X005145Y013787D01*
X005145Y013576D01*
X005064Y013381D01*
X004915Y013232D01*
X004820Y013193D01*
X004826Y013191D01*
X004903Y013152D01*
X004973Y013101D01*
X005034Y013040D01*
X005085Y012970D01*
X005124Y012893D01*
X005151Y012810D01*
X005165Y012725D01*
X005165Y012701D01*
X004635Y012701D01*
X004635Y012661D01*
X005165Y012661D01*
X005165Y012638D01*
X005151Y012553D01*
X005124Y012470D01*
X005085Y012393D01*
X005034Y012323D01*
X004973Y012262D01*
X004903Y012211D01*
X004826Y012172D01*
X004820Y012170D01*
X004915Y012131D01*
X005064Y011982D01*
X005089Y011921D01*
X006035Y011921D01*
X007957Y013363D01*
X007979Y013385D01*
X007995Y013392D01*
X008009Y013402D01*
X008039Y013410D01*
X008067Y013421D01*
X008085Y013421D01*
X008101Y013426D01*
X008132Y013421D01*
X008501Y013421D01*
X008617Y013537D01*
X008771Y013601D01*
X009458Y013601D01*
X009613Y013537D01*
X009731Y013419D01*
X009795Y013265D01*
X009795Y013098D01*
X009731Y012944D01*
X009613Y012825D01*
X009458Y012761D01*
X008771Y012761D01*
X008617Y012825D01*
X008501Y012941D01*
X008195Y012941D01*
X006273Y011500D01*
X006251Y011478D01*
X006234Y011471D01*
X006221Y011461D01*
X006191Y011453D01*
X006163Y011441D01*
X006145Y011441D01*
X006128Y011437D01*
X006098Y011441D01*
X005089Y011441D01*
X005064Y011381D01*
X004915Y011232D01*
X004793Y011181D01*
X004915Y011131D01*
X005064Y010982D01*
X005089Y010921D01*
X006015Y010921D01*
X007411Y012317D01*
X007479Y012385D01*
X007567Y012421D01*
X008501Y012421D01*
X008617Y012537D01*
X008771Y012601D01*
X009458Y012601D01*
X009613Y012537D01*
X009731Y012419D01*
X009795Y012265D01*
X009795Y012098D01*
X009731Y011944D01*
X009613Y011825D01*
X009458Y011761D01*
X008771Y011761D01*
X008617Y011825D01*
X008501Y011941D01*
X007714Y011941D01*
X006251Y010478D01*
X006163Y010441D01*
X006067Y010441D01*
X005089Y010441D01*
X005064Y010381D01*
X004915Y010232D01*
X004720Y010151D01*
X004509Y010151D01*
X004315Y010232D01*
X004165Y010381D01*
X004085Y010576D01*
X004085Y010787D01*
X004149Y010941D01*
X004067Y010941D01*
X001589Y010941D01*
X001564Y010881D01*
X001415Y010732D01*
X001220Y010651D01*
X001095Y010651D01*
X001095Y009711D01*
X001551Y009711D01*
X001645Y009618D01*
X001645Y009421D01*
X004348Y009421D01*
X004368Y009441D01*
X003623Y009441D01*
X003584Y009439D01*
X003576Y009441D01*
X003567Y009441D01*
X003531Y009456D01*
X002295Y009868D01*
X002186Y009823D01*
X002044Y009823D01*
X001912Y009878D01*
X001811Y009979D01*
X001757Y010110D01*
X001757Y010253D01*
X001811Y010384D01*
X001912Y010485D01*
X002044Y010539D01*
X002186Y010539D01*
X002318Y010485D01*
X002418Y010384D01*
X002443Y010325D01*
X003654Y009921D01*
X006015Y009921D01*
X007257Y011163D01*
X007257Y011253D01*
X007311Y011384D01*
X007412Y011485D01*
X007544Y011539D01*
X007686Y011539D01*
X007818Y011485D01*
X007918Y011384D01*
X007973Y011253D01*
X007973Y011110D01*
X007918Y010979D01*
X007818Y010878D01*
X007686Y010823D01*
X007596Y010823D01*
X006251Y009478D01*
X006163Y009441D01*
X006067Y009441D01*
X004861Y009441D01*
X004918Y009384D01*
X004973Y009253D01*
X004973Y009110D01*
X004918Y008979D01*
X004861Y008921D01*
X005542Y008921D01*
X006757Y009731D01*
X006757Y009753D01*
X006811Y009884D01*
X006912Y009985D01*
X007044Y010039D01*
X007186Y010039D01*
X007318Y009985D01*
X007418Y009884D01*
X007473Y009753D01*
X007473Y009610D01*
X007453Y009562D01*
X008556Y010886D01*
X008499Y010944D01*
X008435Y011098D01*
X008435Y011265D01*
X008499Y011419D01*
X008617Y011537D01*
X008771Y011601D01*
X009458Y011601D01*
X009613Y011537D01*
X009731Y011419D01*
X009795Y011265D01*
X009795Y011098D01*
X009731Y010944D01*
X009613Y010825D01*
X009458Y010761D01*
X009077Y010761D01*
X008944Y010601D01*
X009458Y010601D01*
X009613Y010537D01*
X009731Y010419D01*
X009795Y010265D01*
X009795Y010098D01*
X009731Y009944D01*
X009613Y009825D01*
X009458Y009761D01*
X009086Y009761D01*
X008974Y009621D01*
X009115Y009621D01*
X009115Y009182D01*
X009115Y009182D01*
X009115Y009621D01*
X009409Y009621D01*
X009478Y009611D01*
X009544Y009589D01*
X009605Y009558D01*
X009661Y009517D01*
X009710Y009468D01*
X009751Y009412D01*
X009783Y009350D01*
X009804Y009284D01*
X009815Y009216D01*
X009815Y009182D01*
X009115Y009182D01*
X009115Y009181D01*
X009115Y008741D01*
X009409Y008741D01*
X009478Y008752D01*
X009544Y008774D01*
X009605Y008805D01*
X009661Y008846D01*
X009710Y008895D01*
X009751Y008951D01*
X009783Y009012D01*
X009804Y009078D01*
X009815Y009147D01*
X009815Y009181D01*
X009115Y009181D01*
X009115Y009181D01*
X009115Y008741D01*
X008820Y008741D01*
X008752Y008752D01*
X008686Y008774D01*
X008624Y008805D01*
X008568Y008846D01*
X008519Y008895D01*
X008478Y008951D01*
X008463Y008982D01*
X007323Y007558D01*
X007318Y007545D01*
X007294Y007521D01*
X007272Y007494D01*
X007260Y007488D01*
X007251Y007478D01*
X007219Y007465D01*
X007189Y007448D01*
X007175Y007447D01*
X007163Y007441D01*
X007128Y007441D01*
X007094Y007438D01*
X007081Y007441D01*
X001714Y007441D01*
X001620Y007347D01*
X001645Y007287D01*
X001645Y007076D01*
X001564Y006881D01*
X001415Y006732D01*
X001293Y006681D01*
X001415Y006631D01*
X001564Y006482D01*
X001589Y006421D01*
X005515Y006421D01*
X006411Y007317D01*
X006479Y007385D01*
X006567Y007421D01*
X007663Y007421D01*
X007751Y007385D01*
X007818Y007317D01*
X007818Y007317D01*
X008608Y006528D01*
X008617Y006537D01*
X008771Y006601D01*
X009458Y006601D01*
X009613Y006537D01*
X009731Y006419D01*
X009795Y006265D01*
X009795Y006098D01*
X009731Y005944D01*
X009613Y005825D01*
X009458Y005761D01*
X008771Y005761D01*
X008617Y005825D01*
X008499Y005944D01*
X008486Y005975D01*
X008479Y005978D01*
X008411Y006045D01*
X008411Y006045D01*
X007515Y006941D01*
X006714Y006941D01*
X005751Y005978D01*
X005663Y005941D01*
X005567Y005941D01*
X003449Y005941D01*
X003535Y005855D01*
X003535Y005507D01*
X003289Y005261D01*
X002941Y005261D01*
X002695Y005507D01*
X002695Y005855D01*
X002781Y005941D01*
X001589Y005941D01*
X001564Y005881D01*
X001415Y005732D01*
X001220Y005651D01*
X001095Y005651D01*
X001095Y004711D01*
X001551Y004711D01*
X001645Y004618D01*
X001645Y004421D01*
X003515Y004421D01*
X003911Y004817D01*
X003979Y004885D01*
X004067Y004921D01*
X005567Y004921D01*
X005663Y004921D01*
X005751Y004885D01*
X007214Y003421D01*
X007515Y003421D01*
X007875Y003781D01*
X007875Y004134D01*
X007875Y004229D01*
X007911Y004317D01*
X008518Y004924D01*
X008499Y004944D01*
X008435Y005098D01*
X008435Y005265D01*
X008499Y005419D01*
X008617Y005537D01*
X008771Y005601D01*
X009458Y005601D01*
X009613Y005537D01*
X009731Y005419D01*
X009795Y005265D01*
X009795Y005098D01*
X009731Y004944D01*
X009613Y004825D01*
X009458Y004761D01*
X009034Y004761D01*
X008874Y004601D01*
X009458Y004601D01*
X009613Y004537D01*
X009731Y004419D01*
X009795Y004265D01*
X009795Y004098D01*
X009731Y003944D01*
X009613Y003825D01*
X009458Y003761D01*
X008771Y003761D01*
X008617Y003825D01*
X008499Y003944D01*
X008435Y004098D01*
X008435Y004162D01*
X008355Y004082D01*
X008355Y003634D01*
X008318Y003545D01*
X008251Y003478D01*
X007751Y002978D01*
X007663Y002941D01*
X007567Y002941D01*
X007067Y002941D01*
X006979Y002978D01*
X006911Y003045D01*
X005515Y004441D01*
X005026Y004441D01*
X005090Y004378D01*
X005090Y003985D01*
X004812Y003706D01*
X004418Y003706D01*
X004140Y003985D01*
X004140Y004367D01*
X003751Y003978D01*
X003663Y003941D01*
X003567Y003941D01*
X001645Y003941D01*
X001645Y003745D01*
X001551Y003651D01*
X001365Y003651D01*
X001415Y003631D01*
X001564Y003482D01*
X001589Y003421D01*
X002067Y003421D01*
X002163Y003421D01*
X002251Y003385D01*
X003214Y002421D01*
X008015Y002421D01*
X008518Y002924D01*
X008499Y002944D01*
X008435Y003098D01*
X008435Y003265D01*
X008499Y003419D01*
X008617Y003537D01*
X008771Y003601D01*
X009458Y003601D01*
X009613Y003537D01*
X009731Y003419D01*
X009795Y003265D01*
X009795Y003098D01*
X009731Y002944D01*
X009613Y002825D01*
X009458Y002761D01*
X009034Y002761D01*
X008251Y001978D01*
X008163Y001941D01*
X008067Y001941D01*
X003067Y001941D01*
X002979Y001978D01*
X002911Y002045D01*
X002015Y002941D01*
X001589Y002941D01*
X001564Y002881D01*
X001415Y002732D01*
X001320Y002693D01*
X001326Y002691D01*
X001403Y002652D01*
X001473Y002601D01*
X001534Y002540D01*
X001585Y002470D01*
X001624Y002393D01*
X001651Y002310D01*
X001665Y002225D01*
X001665Y002201D01*
X001135Y002201D01*
X001135Y002161D01*
X001665Y002161D01*
X001665Y002138D01*
X001651Y002053D01*
X001624Y001970D01*
X001585Y001893D01*
X001534Y001823D01*
X001473Y001762D01*
X001403Y001711D01*
X001326Y001672D01*
X001320Y001670D01*
X001415Y001631D01*
X001564Y001482D01*
X001645Y001287D01*
X001645Y001076D01*
X001620Y001016D01*
X001714Y000921D01*
X002761Y000921D01*
X002941Y001101D01*
X003289Y001101D01*
X003469Y000921D01*
X005181Y000921D01*
X005147Y000988D01*
X005122Y001063D01*
X005110Y001142D01*
X005110Y001181D01*
X005614Y001181D01*
X005614Y001182D01*
X005110Y001182D01*
X005110Y001221D01*
X005122Y001300D01*
X005147Y001375D01*
X005183Y001446D01*
X005230Y001510D01*
X005286Y001567D01*
X005350Y001613D01*
X005421Y001649D01*
X005497Y001674D01*
X005575Y001686D01*
X005615Y001686D01*
X005615Y001182D01*
X005615Y001182D01*
X005615Y001686D01*
X005655Y001686D01*
X005733Y001674D01*
X005809Y001649D01*
X005879Y001613D01*
X005944Y001567D01*
X006000Y001510D01*
X006047Y001446D01*
X006083Y001375D01*
X006107Y001300D01*
X006120Y001221D01*
X006120Y001182D01*
X005615Y001182D01*
X005615Y001181D01*
X006120Y001181D01*
X006120Y001142D01*
X006107Y001063D01*
X006083Y000989D01*
X006130Y001036D01*
X006130Y001573D01*
X006224Y001666D01*
X007006Y001666D01*
X007100Y001573D01*
X007100Y000790D01*
X007006Y000696D01*
X006469Y000696D01*
X006434Y000661D01*
X009188Y000661D01*
X009170Y000697D01*
X009147Y000769D01*
X009135Y000844D01*
X009135Y001161D01*
X009595Y001161D01*
X009595Y001201D01*
X009135Y001201D01*
X009135Y001519D01*
X009147Y001594D01*
X009170Y001666D01*
X009204Y001733D01*
X009249Y001794D01*
X009302Y001848D01*
X009363Y001892D01*
X009431Y001926D01*
X009502Y001950D01*
X009577Y001961D01*
X009595Y001961D01*
X009595Y001202D01*
X009635Y001202D01*
X009635Y001961D01*
X009653Y001961D01*
X009727Y001950D01*
X009799Y001926D01*
X009866Y001892D01*
X009927Y001848D01*
X009981Y001794D01*
X010025Y001733D01*
X010060Y001666D01*
X010083Y001594D01*
X010095Y001519D01*
X010095Y001201D01*
X009635Y001201D01*
X009635Y001161D01*
X010095Y001161D01*
X010095Y000844D01*
X010083Y000769D01*
X010060Y000697D01*
X010041Y000661D01*
X010208Y000661D01*
X010155Y000790D01*
X010155Y001573D01*
X010225Y001742D01*
X010354Y001871D01*
X010523Y001941D01*
X010706Y001941D01*
X010875Y001871D01*
X011005Y001742D01*
X011075Y001573D01*
X011075Y000790D01*
X011021Y000661D01*
X011208Y000661D01*
X011155Y000790D01*
X011155Y001573D01*
X011225Y001742D01*
X011354Y001871D01*
X011523Y001941D01*
X011706Y001941D01*
X011875Y001871D01*
X012005Y001742D01*
X012075Y001573D01*
X012075Y000790D01*
X012021Y000661D01*
X019485Y000661D01*
X019315Y000732D01*
X019165Y000881D01*
X019141Y000941D01*
X017547Y000941D01*
X017312Y000706D01*
X016918Y000706D01*
X016683Y000941D01*
X014628Y000941D01*
X014594Y000938D01*
X014581Y000941D01*
X014567Y000941D01*
X014535Y000955D01*
X014502Y000964D01*
X014491Y000973D01*
X014479Y000978D01*
X014454Y001002D01*
X012256Y002761D01*
X012310Y002718D02*
X008991Y002718D01*
X008832Y002560D02*
X012508Y002560D01*
X012706Y002401D02*
X008674Y002401D01*
X008515Y002242D02*
X012904Y002242D01*
X013102Y002084D02*
X008357Y002084D01*
X008115Y002181D02*
X009115Y003181D01*
X008590Y003511D02*
X008284Y003511D01*
X008355Y003669D02*
X012787Y003669D01*
X012639Y003511D02*
X012946Y003511D01*
X013104Y003352D02*
X012759Y003352D01*
X012795Y003194D02*
X013263Y003194D01*
X013422Y003035D02*
X012769Y003035D01*
X012880Y002877D02*
X017326Y002877D01*
X017320Y002676D02*
X017115Y002676D01*
X017115Y002182D01*
X017115Y002182D01*
X017115Y002676D01*
X016910Y002676D01*
X016620Y002386D01*
X016620Y002182D01*
X017114Y002182D01*
X017114Y002181D01*
X016620Y002181D01*
X016620Y001976D01*
X016910Y001686D01*
X017115Y001686D01*
X017320Y001686D01*
X017610Y001976D01*
X017610Y002181D01*
X017115Y002181D01*
X017115Y001686D01*
X017115Y002181D01*
X017115Y002181D01*
X017115Y002182D01*
X017610Y002182D01*
X017610Y002386D01*
X017320Y002676D01*
X017437Y002560D02*
X019215Y002560D01*
X019109Y002401D02*
X017595Y002401D01*
X017610Y002242D02*
X019068Y002242D01*
X019073Y002084D02*
X017610Y002084D01*
X017559Y001925D02*
X019128Y001925D01*
X019252Y001767D02*
X017400Y001767D01*
X017360Y001608D02*
X019292Y001608D01*
X019152Y001450D02*
X017518Y001450D01*
X017115Y001767D02*
X017115Y001767D01*
X017115Y001925D02*
X017115Y001925D01*
X017115Y002084D02*
X017115Y002084D01*
X017115Y002242D02*
X017115Y002242D01*
X017115Y002401D02*
X017115Y002401D01*
X017115Y002560D02*
X017115Y002560D01*
X016793Y002560D02*
X013276Y002560D01*
X013078Y002718D02*
X019348Y002718D01*
X019170Y002877D02*
X017904Y002877D01*
X017615Y003181D02*
X013615Y003181D01*
X012615Y004181D01*
X012115Y004181D01*
X012615Y003828D02*
X012629Y003828D01*
X012991Y004145D02*
X013312Y004145D01*
X013470Y003986D02*
X013149Y003986D01*
X013308Y003828D02*
X019085Y003828D01*
X019161Y003669D02*
X013466Y003669D01*
X013625Y003511D02*
X017350Y003511D01*
X017615Y003181D02*
X019615Y003181D01*
X019195Y003511D02*
X017879Y003511D01*
X019085Y004462D02*
X013674Y004462D01*
X013515Y004621D02*
X019088Y004621D01*
X018869Y005096D02*
X019820Y005096D01*
X019820Y004938D02*
X013198Y004938D01*
X013039Y005096D02*
X013361Y005096D01*
X013202Y005255D02*
X012881Y005255D01*
X012733Y005413D02*
X013043Y005413D01*
X012885Y005572D02*
X012530Y005572D01*
X012726Y005730D02*
X007467Y005730D01*
X007452Y005694D02*
X007513Y005840D01*
X007513Y005999D01*
X007452Y006145D01*
X007340Y006257D01*
X007194Y006317D01*
X007036Y006317D01*
X006889Y006257D01*
X006778Y006145D01*
X006717Y005999D01*
X006717Y005840D01*
X006778Y005694D01*
X006889Y005582D01*
X006929Y005566D01*
X006896Y005549D01*
X006843Y005511D01*
X006796Y005464D01*
X006757Y005411D01*
X006728Y005352D01*
X006707Y005290D01*
X006697Y005225D01*
X006697Y005192D01*
X006697Y005159D01*
X006707Y005094D01*
X006728Y005032D01*
X006757Y004973D01*
X006796Y004920D01*
X006843Y004873D01*
X006896Y004835D01*
X006952Y004806D01*
X006889Y004780D01*
X006778Y004669D01*
X006717Y004522D01*
X006717Y004364D01*
X006778Y004218D01*
X006889Y004106D01*
X007036Y004045D01*
X007194Y004045D01*
X007340Y004106D01*
X007452Y004218D01*
X007513Y004364D01*
X007513Y004522D01*
X007452Y004669D01*
X007340Y004780D01*
X007278Y004806D01*
X007334Y004835D01*
X007387Y004873D01*
X007433Y004920D01*
X007472Y004973D01*
X007502Y005032D01*
X007522Y005094D01*
X007533Y005159D01*
X007533Y005192D01*
X007533Y005225D01*
X007522Y005290D01*
X007502Y005352D01*
X007472Y005411D01*
X007433Y005464D01*
X007387Y005511D01*
X007334Y005549D01*
X007301Y005566D01*
X007340Y005582D01*
X007452Y005694D01*
X007315Y005572D02*
X008700Y005572D01*
X008496Y005413D02*
X007470Y005413D01*
X007528Y005255D02*
X008435Y005255D01*
X008435Y005096D02*
X007523Y005096D01*
X007533Y005192D02*
X007115Y005192D01*
X007533Y005192D01*
X007446Y004938D02*
X008505Y004938D01*
X008373Y004779D02*
X007341Y004779D01*
X007472Y004621D02*
X008215Y004621D01*
X008056Y004462D02*
X007513Y004462D01*
X007487Y004304D02*
X007906Y004304D01*
X007875Y004145D02*
X007379Y004145D01*
X007875Y003986D02*
X006649Y003986D01*
X006808Y003828D02*
X007875Y003828D01*
X007763Y003669D02*
X006966Y003669D01*
X007125Y003511D02*
X007605Y003511D01*
X007615Y003181D02*
X008115Y003681D01*
X008115Y004181D01*
X009115Y005181D01*
X009501Y004779D02*
X011728Y004779D01*
X011505Y004938D02*
X009725Y004938D01*
X009794Y005096D02*
X011435Y005096D01*
X011435Y005255D02*
X009795Y005255D01*
X009733Y005413D02*
X011496Y005413D01*
X011700Y005572D02*
X009530Y005572D01*
X009676Y005889D02*
X011553Y005889D01*
X011456Y006048D02*
X009774Y006048D01*
X009795Y006206D02*
X011435Y006206D01*
X011476Y006365D02*
X009754Y006365D01*
X009627Y006523D02*
X011603Y006523D01*
X011686Y006774D02*
X011624Y006805D01*
X011568Y006846D01*
X011519Y006895D01*
X011478Y006951D01*
X011447Y007012D01*
X011426Y007078D01*
X011415Y007147D01*
X011415Y007181D01*
X012114Y007181D01*
X012114Y007182D01*
X011415Y007182D01*
X011415Y007216D01*
X011426Y007284D01*
X011447Y007350D01*
X011478Y007412D01*
X011519Y007468D01*
X011568Y007517D01*
X011624Y007558D01*
X011686Y007589D01*
X011752Y007611D01*
X011820Y007621D01*
X012115Y007621D01*
X012115Y007182D01*
X012115Y007182D01*
X012115Y007621D01*
X012409Y007621D01*
X012478Y007611D01*
X012544Y007589D01*
X012605Y007558D01*
X012661Y007517D01*
X012710Y007468D01*
X012751Y007412D01*
X012783Y007350D01*
X012804Y007284D01*
X012815Y007216D01*
X012815Y007182D01*
X012115Y007182D01*
X012115Y007181D01*
X012115Y006741D01*
X012409Y006741D01*
X012478Y006752D01*
X012544Y006774D01*
X012605Y006805D01*
X012661Y006846D01*
X012710Y006895D01*
X012751Y006951D01*
X012783Y007012D01*
X012804Y007078D01*
X012815Y007147D01*
X012815Y007181D01*
X012115Y007181D01*
X012115Y007181D01*
X012115Y006741D01*
X011820Y006741D01*
X011752Y006752D01*
X011686Y006774D01*
X011576Y006840D02*
X009628Y006840D01*
X009613Y006825D02*
X009731Y006944D01*
X009795Y007098D01*
X009795Y007265D01*
X009731Y007419D01*
X009613Y007537D01*
X009458Y007601D01*
X008771Y007601D01*
X008617Y007537D01*
X008499Y007419D01*
X008435Y007265D01*
X008435Y007098D01*
X008499Y006944D01*
X008617Y006825D01*
X008771Y006761D01*
X009458Y006761D01*
X009613Y006825D01*
X009754Y006999D02*
X011454Y006999D01*
X011415Y007157D02*
X009795Y007157D01*
X009774Y007316D02*
X011436Y007316D01*
X011526Y007474D02*
X009676Y007474D01*
X009531Y007791D02*
X011699Y007791D01*
X011496Y007950D02*
X009734Y007950D01*
X009731Y007944D02*
X009795Y008098D01*
X009795Y008265D01*
X009731Y008419D01*
X009613Y008537D01*
X009458Y008601D01*
X008771Y008601D01*
X008617Y008537D01*
X008499Y008419D01*
X008435Y008265D01*
X008435Y008098D01*
X008499Y007944D01*
X008617Y007825D01*
X008771Y007761D01*
X009458Y007761D01*
X009613Y007825D01*
X009731Y007944D01*
X009795Y008109D02*
X011435Y008109D01*
X011407Y008267D02*
X009794Y008267D01*
X009724Y008426D02*
X011090Y008426D01*
X010894Y008584D02*
X009500Y008584D01*
X009418Y008743D02*
X010875Y008743D01*
X010875Y008901D02*
X009715Y008901D01*
X009798Y009060D02*
X010875Y009060D01*
X010875Y009218D02*
X009814Y009218D01*
X009769Y009377D02*
X010875Y009377D01*
X010875Y009535D02*
X009636Y009535D01*
X009640Y009853D02*
X010875Y009853D01*
X010875Y010011D02*
X009759Y010011D01*
X009795Y010170D02*
X010875Y010170D01*
X010875Y010328D02*
X009769Y010328D01*
X009663Y010487D02*
X010875Y010487D01*
X010875Y010645D02*
X008980Y010645D01*
X009115Y010181D02*
X007115Y007681D01*
X001615Y007681D01*
X001115Y007181D01*
X001613Y006999D02*
X006093Y006999D01*
X006251Y007157D02*
X001645Y007157D01*
X001633Y007316D02*
X006410Y007316D01*
X006615Y007181D02*
X007615Y007181D01*
X008615Y006181D01*
X009115Y006181D01*
X008553Y005889D02*
X007513Y005889D01*
X007492Y006048D02*
X008409Y006048D01*
X008251Y006206D02*
X007391Y006206D01*
X007934Y006523D02*
X006296Y006523D01*
X006137Y006365D02*
X008092Y006365D01*
X007775Y006682D02*
X006454Y006682D01*
X006613Y006840D02*
X007617Y006840D01*
X007978Y007157D02*
X008435Y007157D01*
X008456Y007316D02*
X007820Y007316D01*
X008137Y006999D02*
X008476Y006999D01*
X008602Y006840D02*
X008295Y006840D01*
X008454Y006682D02*
X014276Y006682D01*
X014434Y006840D02*
X012654Y006840D01*
X012776Y006999D02*
X014593Y006999D01*
X014751Y007157D02*
X012815Y007157D01*
X012794Y007316D02*
X014641Y007316D01*
X014615Y007681D02*
X015115Y007181D01*
X019615Y007181D01*
X019436Y006682D02*
X014954Y006682D01*
X014796Y006523D02*
X019207Y006523D01*
X019117Y006365D02*
X014637Y006365D01*
X014535Y006206D02*
X019085Y006206D01*
X019097Y006048D02*
X014535Y006048D01*
X014416Y005889D02*
X018983Y005889D01*
X018824Y005730D02*
X013405Y005730D01*
X013564Y005572D02*
X018666Y005572D01*
X018615Y005181D02*
X019615Y006181D01*
X019820Y005572D02*
X019345Y005572D01*
X019186Y005413D02*
X019820Y005413D01*
X019820Y005255D02*
X019028Y005255D01*
X018615Y005181D02*
X013615Y005181D01*
X012615Y006181D01*
X012115Y006181D01*
X012627Y006523D02*
X013863Y006523D01*
X013704Y006365D02*
X012771Y006365D01*
X012930Y006206D02*
X013695Y006206D01*
X013695Y006048D02*
X013088Y006048D01*
X013247Y005889D02*
X013813Y005889D01*
X014115Y006181D02*
X015115Y007181D01*
X015161Y007474D02*
X019163Y007474D01*
X019320Y007633D02*
X015003Y007633D01*
X014844Y007791D02*
X017411Y007791D01*
X017441Y007761D02*
X017789Y007761D01*
X018035Y008007D01*
X018035Y008355D01*
X017789Y008601D01*
X017441Y008601D01*
X017195Y008355D01*
X017195Y008007D01*
X017441Y007761D01*
X017252Y007950D02*
X013353Y007950D01*
X013115Y007681D02*
X014615Y007681D01*
X015113Y006840D02*
X019206Y006840D01*
X019255Y007791D02*
X017819Y007791D01*
X017977Y007950D02*
X018546Y007950D01*
X018615Y008181D02*
X017615Y009181D01*
X016115Y009181D01*
X015778Y009060D02*
X012779Y009060D01*
X012795Y009098D02*
X012731Y008944D01*
X012613Y008825D01*
X012458Y008761D01*
X011771Y008761D01*
X011617Y008825D01*
X011499Y008944D01*
X011435Y009098D01*
X011435Y009265D01*
X011499Y009419D01*
X011617Y009537D01*
X011771Y009601D01*
X012458Y009601D01*
X012613Y009537D01*
X012731Y009419D01*
X012795Y009265D01*
X012795Y009098D01*
X012795Y009218D02*
X015757Y009218D01*
X015808Y009377D02*
X012748Y009377D01*
X012615Y009535D02*
X016034Y009535D01*
X016196Y009535D02*
X018921Y009535D01*
X019080Y009377D02*
X017759Y009377D01*
X017917Y009218D02*
X019085Y009218D01*
X019085Y009060D02*
X018076Y009060D01*
X018234Y008901D02*
X019085Y008901D01*
X019087Y008743D02*
X018393Y008743D01*
X018551Y008584D02*
X019268Y008584D01*
X019142Y008426D02*
X018710Y008426D01*
X018615Y008181D02*
X019615Y008181D01*
X019615Y009181D02*
X018115Y010681D01*
X018115Y012181D01*
X016615Y014181D01*
X012115Y014181D01*
X012590Y013816D02*
X013910Y013816D01*
X013752Y013658D02*
X010895Y013658D01*
X010855Y013816D02*
X011639Y013816D01*
X011486Y013975D02*
X010855Y013975D01*
X010855Y014133D02*
X011435Y014133D01*
X011446Y014292D02*
X010855Y014292D01*
X010855Y014450D02*
X011530Y014450D01*
X011686Y014774D02*
X011624Y014805D01*
X011568Y014846D01*
X011519Y014895D01*
X011478Y014951D01*
X011447Y015012D01*
X011426Y015078D01*
X011415Y015147D01*
X011415Y015181D01*
X012114Y015181D01*
X012114Y015182D01*
X011415Y015182D01*
X011415Y015216D01*
X011426Y015284D01*
X011447Y015350D01*
X011478Y015412D01*
X011519Y015468D01*
X011568Y015517D01*
X011624Y015558D01*
X011686Y015589D01*
X011752Y015611D01*
X011820Y015621D01*
X012115Y015621D01*
X012115Y015182D01*
X012115Y015182D01*
X012115Y015621D01*
X012409Y015621D01*
X012478Y015611D01*
X012544Y015589D01*
X012605Y015558D01*
X012661Y015517D01*
X012710Y015468D01*
X012751Y015412D01*
X012783Y015350D01*
X012804Y015284D01*
X012815Y015216D01*
X012815Y015182D01*
X012115Y015182D01*
X012115Y015181D01*
X012115Y014741D01*
X012409Y014741D01*
X012478Y014752D01*
X012544Y014774D01*
X012605Y014805D01*
X012661Y014846D01*
X012710Y014895D01*
X012751Y014951D01*
X012783Y015012D01*
X012804Y015078D01*
X012815Y015147D01*
X012815Y015181D01*
X012115Y015181D01*
X012115Y015181D01*
X012115Y014741D01*
X011820Y014741D01*
X011752Y014752D01*
X011686Y014774D01*
X011705Y014767D02*
X010855Y014767D01*
X010855Y014609D02*
X019820Y014609D01*
X019820Y014767D02*
X012524Y014767D01*
X012733Y014926D02*
X019820Y014926D01*
X019820Y015084D02*
X012805Y015084D01*
X012811Y015243D02*
X019820Y015243D01*
X019820Y015402D02*
X012756Y015402D01*
X012601Y015560D02*
X019820Y015560D01*
X019820Y015719D02*
X010855Y015719D01*
X010855Y015877D02*
X011565Y015877D01*
X011617Y015825D02*
X011771Y015761D01*
X012458Y015761D01*
X012613Y015825D01*
X012731Y015944D01*
X012795Y016098D01*
X012795Y016265D01*
X012731Y016419D01*
X012613Y016537D01*
X012458Y016601D01*
X011771Y016601D01*
X011617Y016537D01*
X011499Y016419D01*
X011435Y016265D01*
X011435Y016098D01*
X011499Y015944D01*
X011617Y015825D01*
X011461Y016036D02*
X010855Y016036D01*
X010855Y016194D02*
X011435Y016194D01*
X011471Y016353D02*
X010855Y016353D01*
X010855Y016511D02*
X011591Y016511D01*
X011198Y016828D02*
X013031Y016828D01*
X013198Y016828D02*
X017874Y016828D01*
X017941Y016761D02*
X018289Y016761D01*
X018535Y017007D01*
X018535Y017355D01*
X018289Y017601D01*
X017941Y017601D01*
X017695Y017355D01*
X017695Y017007D01*
X017941Y016761D01*
X017715Y016987D02*
X013422Y016987D01*
X013473Y017146D02*
X017695Y017146D01*
X017695Y017304D02*
X013452Y017304D01*
X013340Y017463D02*
X017802Y017463D01*
X018427Y017463D02*
X019820Y017463D01*
X019820Y017621D02*
X013035Y017621D01*
X013053Y017780D02*
X019820Y017780D01*
X019820Y017938D02*
X013211Y017938D01*
X013115Y018181D02*
X014615Y018181D01*
X015615Y019181D01*
X015917Y018890D02*
X016284Y018890D01*
X016175Y019048D02*
X016035Y019048D01*
X016035Y019207D02*
X016175Y019207D01*
X016176Y019365D02*
X016025Y019365D01*
X016615Y019048D02*
X016615Y019048D01*
X016615Y018890D02*
X016615Y018890D01*
X016945Y018890D02*
X017313Y018890D01*
X017195Y019048D02*
X017055Y019048D01*
X017055Y019207D02*
X017195Y019207D01*
X017205Y019365D02*
X017053Y019365D01*
X017917Y018890D02*
X018284Y018890D01*
X018175Y019048D02*
X018035Y019048D01*
X018035Y019207D02*
X018175Y019207D01*
X018176Y019365D02*
X018025Y019365D01*
X018615Y019048D02*
X018615Y019048D01*
X018615Y018890D02*
X018615Y018890D01*
X018945Y018890D02*
X019313Y018890D01*
X019195Y019048D02*
X019055Y019048D01*
X019055Y019207D02*
X019195Y019207D01*
X019205Y019365D02*
X019053Y019365D01*
X019820Y018731D02*
X015504Y018731D01*
X015345Y018572D02*
X019820Y018572D01*
X019820Y018414D02*
X015187Y018414D01*
X015028Y018255D02*
X019820Y018255D01*
X019820Y018097D02*
X014870Y018097D01*
X014515Y018421D02*
X013067Y018421D01*
X012979Y018385D01*
X012911Y018317D01*
X012695Y018101D01*
X012441Y018101D01*
X012195Y017855D01*
X012195Y017507D01*
X012281Y017421D01*
X011381Y017421D01*
X011318Y017485D01*
X011186Y017539D01*
X011044Y017539D01*
X010912Y017485D01*
X010855Y017428D01*
X010855Y017729D01*
X010818Y017817D01*
X010751Y017885D01*
X010251Y018385D01*
X010163Y018421D01*
X010067Y018421D01*
X007214Y018421D01*
X006966Y018669D01*
X007009Y018651D01*
X007220Y018651D01*
X007415Y018732D01*
X007564Y018881D01*
X007615Y019004D01*
X007665Y018881D01*
X007815Y018732D01*
X008009Y018651D01*
X008220Y018651D01*
X008415Y018732D01*
X008564Y018881D01*
X008565Y018883D01*
X008565Y018788D01*
X008577Y018742D01*
X008601Y018701D01*
X008634Y018667D01*
X008675Y018644D01*
X008721Y018631D01*
X009095Y018631D01*
X009095Y019161D01*
X009135Y019161D01*
X009135Y018631D01*
X009509Y018631D01*
X009554Y018644D01*
X009595Y018667D01*
X009629Y018701D01*
X009652Y018742D01*
X009665Y018788D01*
X009665Y019161D01*
X009135Y019161D01*
X009135Y019201D01*
X009665Y019201D01*
X009665Y019386D01*
X010626Y019386D01*
X010585Y019287D01*
X010585Y019076D01*
X010665Y018881D01*
X010815Y018732D01*
X011009Y018651D01*
X011220Y018651D01*
X011415Y018732D01*
X011564Y018881D01*
X011615Y019004D01*
X011665Y018881D01*
X011815Y018732D01*
X012009Y018651D01*
X012220Y018651D01*
X012415Y018732D01*
X012564Y018881D01*
X012565Y018883D01*
X012565Y018788D01*
X012577Y018742D01*
X012601Y018701D01*
X012634Y018667D01*
X012675Y018644D01*
X012721Y018631D01*
X013095Y018631D01*
X013095Y019161D01*
X013135Y019161D01*
X013135Y018631D01*
X013509Y018631D01*
X013554Y018644D01*
X013595Y018667D01*
X013629Y018701D01*
X013652Y018742D01*
X013665Y018788D01*
X013665Y019161D01*
X013135Y019161D01*
X013135Y019201D01*
X013665Y019201D01*
X013665Y019386D01*
X014198Y019386D01*
X014175Y019364D01*
X014175Y019182D01*
X014614Y019182D01*
X014614Y019181D01*
X014175Y019181D01*
X014175Y018999D01*
X014433Y018741D01*
X014615Y018741D01*
X014797Y018741D01*
X015055Y018999D01*
X015055Y019181D01*
X014615Y019181D01*
X014615Y018741D01*
X014615Y019181D01*
X014615Y019181D01*
X014615Y019182D01*
X015055Y019182D01*
X015055Y019364D01*
X015032Y019386D01*
X015226Y019386D01*
X015195Y019355D01*
X015195Y019101D01*
X014515Y018421D01*
X014666Y018572D02*
X007063Y018572D01*
X007412Y018731D02*
X007817Y018731D01*
X007662Y018890D02*
X007568Y018890D01*
X007115Y018181D02*
X010115Y018181D01*
X010615Y017681D01*
X010615Y013681D01*
X011115Y012681D01*
X013115Y012681D01*
X013615Y012181D01*
X013957Y012072D02*
X014630Y012072D01*
X014786Y012296D02*
X014850Y012249D01*
X014921Y012213D01*
X014997Y012189D01*
X015075Y012176D01*
X015115Y012176D01*
X015155Y012176D01*
X015233Y012189D01*
X015309Y012213D01*
X015379Y012249D01*
X015444Y012296D01*
X015500Y012352D01*
X015547Y012417D01*
X015583Y012488D01*
X015607Y012563D01*
X015620Y012642D01*
X015620Y012681D01*
X015115Y012681D01*
X015115Y012176D01*
X015115Y012681D01*
X015115Y012681D01*
X015115Y012682D01*
X015115Y012682D01*
X015115Y013186D01*
X015155Y013186D01*
X015233Y013174D01*
X015309Y013149D01*
X015379Y013113D01*
X015444Y013067D01*
X015500Y013010D01*
X015547Y012946D01*
X015583Y012875D01*
X015607Y012800D01*
X015620Y012721D01*
X015620Y012682D01*
X015115Y012682D01*
X015115Y013186D01*
X015075Y013186D01*
X014997Y013174D01*
X014921Y013149D01*
X014850Y013113D01*
X014786Y013067D01*
X014730Y013010D01*
X014683Y012946D01*
X014647Y012875D01*
X014622Y012800D01*
X014610Y012721D01*
X014610Y012682D01*
X015114Y012682D01*
X015114Y012681D01*
X014610Y012681D01*
X014610Y012642D01*
X014622Y012563D01*
X014647Y012488D01*
X014683Y012417D01*
X014730Y012352D01*
X014786Y012296D01*
X014887Y012231D02*
X013973Y012231D01*
X013913Y012389D02*
X014703Y012389D01*
X014627Y012548D02*
X013588Y012548D01*
X013429Y012706D02*
X014610Y012706D01*
X014643Y012865D02*
X013271Y012865D01*
X013615Y013181D02*
X014115Y013681D01*
X015615Y013681D01*
X016115Y013181D01*
X015757Y013182D02*
X015182Y013182D01*
X015115Y013182D02*
X015115Y013182D01*
X015047Y013182D02*
X013955Y013182D01*
X014113Y013341D02*
X015616Y013341D01*
X015487Y013023D02*
X015793Y013023D01*
X015943Y012865D02*
X015586Y012865D01*
X015620Y012706D02*
X017421Y012706D01*
X017540Y012548D02*
X015602Y012548D01*
X015527Y012389D02*
X017659Y012389D01*
X017695Y012231D02*
X015343Y012231D01*
X015115Y012231D02*
X015115Y012231D01*
X015115Y012389D02*
X015115Y012389D01*
X015115Y012548D02*
X015115Y012548D01*
X015115Y012706D02*
X015115Y012706D01*
X015115Y012865D02*
X015115Y012865D01*
X015115Y013023D02*
X015115Y013023D01*
X014743Y013023D02*
X013796Y013023D01*
X013615Y013181D02*
X012115Y013181D01*
X012651Y013499D02*
X013593Y013499D01*
X012700Y014450D02*
X019820Y014450D01*
X019820Y014292D02*
X016832Y014292D01*
X016951Y014133D02*
X019820Y014133D01*
X019820Y013975D02*
X017070Y013975D01*
X017189Y013816D02*
X019820Y013816D01*
X019820Y013658D02*
X017308Y013658D01*
X017427Y013499D02*
X019820Y013499D01*
X019820Y013341D02*
X017545Y013341D01*
X017664Y013182D02*
X019820Y013182D01*
X019820Y013023D02*
X017783Y013023D01*
X017902Y012865D02*
X019820Y012865D01*
X019820Y012706D02*
X018021Y012706D01*
X018342Y012548D02*
X019820Y012548D01*
X019820Y012389D02*
X018501Y012389D01*
X018535Y012231D02*
X019820Y012231D01*
X019820Y012072D02*
X018535Y012072D01*
X018441Y011914D02*
X019820Y011914D01*
X019820Y011755D02*
X018355Y011755D01*
X018355Y011597D02*
X019820Y011597D01*
X019820Y011438D02*
X018355Y011438D01*
X018355Y011279D02*
X019820Y011279D01*
X019820Y011121D02*
X018355Y011121D01*
X018355Y010962D02*
X019820Y010962D01*
X019820Y010804D02*
X018355Y010804D01*
X018490Y010645D02*
X019820Y010645D01*
X019820Y010487D02*
X018649Y010487D01*
X018807Y010328D02*
X019820Y010328D01*
X019820Y010170D02*
X018966Y010170D01*
X019124Y010011D02*
X019820Y010011D01*
X019820Y009853D02*
X019283Y009853D01*
X018763Y009694D02*
X011355Y009694D01*
X011355Y009853D02*
X011590Y009853D01*
X011617Y009825D02*
X011771Y009761D01*
X012458Y009761D01*
X012613Y009825D01*
X012729Y009941D01*
X013348Y009941D01*
X013412Y009878D01*
X013544Y009823D01*
X013686Y009823D01*
X013818Y009878D01*
X013918Y009979D01*
X013973Y010110D01*
X013973Y010253D01*
X013918Y010384D01*
X013818Y010485D01*
X013686Y010539D01*
X013544Y010539D01*
X013412Y010485D01*
X013348Y010421D01*
X012729Y010421D01*
X012613Y010537D01*
X012458Y010601D01*
X011771Y010601D01*
X011617Y010537D01*
X011499Y010419D01*
X011435Y010265D01*
X011435Y010098D01*
X011499Y009944D01*
X011617Y009825D01*
X011471Y010011D02*
X011355Y010011D01*
X011355Y010170D02*
X011435Y010170D01*
X011461Y010328D02*
X011355Y010328D01*
X011355Y010487D02*
X011566Y010487D01*
X011355Y010645D02*
X017875Y010645D01*
X017875Y010804D02*
X014331Y010804D01*
X014490Y010962D02*
X017875Y010962D01*
X017875Y011121D02*
X014535Y011121D01*
X014535Y011279D02*
X014640Y011279D01*
X014630Y011438D02*
X014452Y011438D01*
X014115Y011181D02*
X012115Y011181D01*
X012561Y010804D02*
X013898Y010804D01*
X013813Y010487D02*
X017970Y010487D01*
X018129Y010328D02*
X013942Y010328D01*
X013973Y010170D02*
X018287Y010170D01*
X018446Y010011D02*
X013932Y010011D01*
X013757Y009853D02*
X018604Y009853D01*
X017714Y008743D02*
X011529Y008743D01*
X011541Y008901D02*
X011355Y008901D01*
X011355Y009060D02*
X011451Y009060D01*
X011435Y009218D02*
X011355Y009218D01*
X011355Y009377D02*
X011481Y009377D01*
X011355Y009535D02*
X011615Y009535D01*
X010875Y009694D02*
X009032Y009694D01*
X009115Y009535D02*
X009115Y009535D01*
X009115Y009377D02*
X009115Y009377D01*
X009115Y009218D02*
X009115Y009218D01*
X009115Y009060D02*
X009115Y009060D01*
X009115Y008901D02*
X009115Y008901D01*
X009115Y008743D02*
X009115Y008743D01*
X008812Y008743D02*
X008271Y008743D01*
X008398Y008901D02*
X008514Y008901D01*
X008730Y008584D02*
X008144Y008584D01*
X008018Y008426D02*
X008505Y008426D01*
X008436Y008267D02*
X007891Y008267D01*
X007764Y008109D02*
X008435Y008109D01*
X008496Y007950D02*
X007637Y007950D01*
X007510Y007791D02*
X008699Y007791D01*
X008554Y007474D02*
X007242Y007474D01*
X007383Y007633D02*
X012757Y007633D01*
X012773Y007791D02*
X012531Y007791D01*
X012734Y007950D02*
X012877Y007950D01*
X012795Y008109D02*
X017195Y008109D01*
X017195Y008267D02*
X012794Y008267D01*
X012724Y008426D02*
X017265Y008426D01*
X017424Y008584D02*
X012500Y008584D01*
X012689Y008901D02*
X015888Y008901D01*
X016341Y008901D02*
X017555Y008901D01*
X017806Y008584D02*
X017873Y008584D01*
X017964Y008426D02*
X018031Y008426D01*
X018035Y008267D02*
X018190Y008267D01*
X018035Y008109D02*
X018348Y008109D01*
X017875Y011279D02*
X015589Y011279D01*
X015600Y011438D02*
X017875Y011438D01*
X017875Y011597D02*
X015600Y011597D01*
X015600Y011755D02*
X017875Y011755D01*
X017789Y011914D02*
X015600Y011914D01*
X015600Y012072D02*
X017695Y012072D01*
X017302Y012865D02*
X016286Y012865D01*
X016437Y013023D02*
X017183Y013023D01*
X017064Y013182D02*
X016473Y013182D01*
X016436Y013341D02*
X016945Y013341D01*
X016827Y013499D02*
X016284Y013499D01*
X015978Y013658D02*
X016708Y013658D01*
X016589Y013816D02*
X015819Y013816D01*
X015115Y011681D02*
X011615Y011681D01*
X011115Y011181D01*
X011115Y008681D01*
X012115Y008181D01*
X012115Y007474D02*
X012115Y007474D01*
X012115Y007316D02*
X012115Y007316D01*
X012115Y007157D02*
X012115Y007157D01*
X012115Y006999D02*
X012115Y006999D01*
X012115Y006840D02*
X012115Y006840D01*
X012704Y007474D02*
X012815Y007474D01*
X012640Y009853D02*
X013473Y009853D01*
X013615Y010181D02*
X012115Y010181D01*
X012663Y010487D02*
X013416Y010487D01*
X011669Y010804D02*
X011355Y010804D01*
X011355Y010962D02*
X011491Y010962D01*
X011435Y011121D02*
X011394Y011121D01*
X011032Y011438D02*
X009712Y011438D01*
X009789Y011279D02*
X010896Y011279D01*
X010875Y011121D02*
X009795Y011121D01*
X009739Y010962D02*
X010875Y010962D01*
X010875Y010804D02*
X009561Y010804D01*
X009115Y011181D02*
X006615Y008181D01*
X001115Y008181D01*
X001115Y009181D02*
X004615Y009181D01*
X004952Y009060D02*
X005750Y009060D01*
X005988Y009218D02*
X004973Y009218D01*
X004921Y009377D02*
X006225Y009377D01*
X006308Y009535D02*
X006463Y009535D01*
X006467Y009694D02*
X006701Y009694D01*
X006625Y009853D02*
X006798Y009853D01*
X006784Y010011D02*
X006975Y010011D01*
X006942Y010170D02*
X007959Y010170D01*
X008091Y010328D02*
X007101Y010328D01*
X007260Y010487D02*
X008224Y010487D01*
X008356Y010645D02*
X007418Y010645D01*
X007577Y010804D02*
X008488Y010804D01*
X008491Y010962D02*
X007902Y010962D01*
X007973Y011121D02*
X008435Y011121D01*
X008441Y011279D02*
X007962Y011279D01*
X007865Y011438D02*
X008517Y011438D01*
X008760Y011597D02*
X007369Y011597D01*
X007365Y011438D02*
X007211Y011438D01*
X007268Y011279D02*
X007052Y011279D01*
X006894Y011121D02*
X007215Y011121D01*
X007056Y010962D02*
X006735Y010962D01*
X006577Y010804D02*
X006898Y010804D01*
X006739Y010645D02*
X006418Y010645D01*
X006260Y010487D02*
X006581Y010487D01*
X006422Y010328D02*
X005011Y010328D01*
X004764Y010170D02*
X006264Y010170D01*
X006105Y010011D02*
X003385Y010011D01*
X003615Y009681D02*
X006115Y009681D01*
X007615Y011181D01*
X007528Y011755D02*
X011349Y011755D01*
X011191Y011597D02*
X009470Y011597D01*
X009701Y011914D02*
X011529Y011914D01*
X011445Y012072D02*
X009784Y012072D01*
X009795Y012231D02*
X011435Y012231D01*
X011486Y012389D02*
X009743Y012389D01*
X009588Y012548D02*
X010910Y012548D01*
X010834Y012706D02*
X007881Y012706D01*
X007670Y012548D02*
X008642Y012548D01*
X008577Y012865D02*
X008093Y012865D01*
X008115Y013181D02*
X009115Y013181D01*
X008579Y013499D02*
X005113Y013499D01*
X005145Y013658D02*
X010375Y013658D01*
X010375Y013816D02*
X009590Y013816D01*
X009613Y013825D02*
X009458Y013761D01*
X008771Y013761D01*
X008617Y013825D01*
X008499Y013944D01*
X008435Y014098D01*
X008435Y014265D01*
X008499Y014419D01*
X008617Y014537D01*
X008771Y014601D01*
X009458Y014601D01*
X009613Y014537D01*
X009731Y014419D01*
X009795Y014265D01*
X009795Y014098D01*
X009731Y013944D01*
X009613Y013825D01*
X009744Y013975D02*
X010375Y013975D01*
X010375Y014133D02*
X009795Y014133D01*
X009784Y014292D02*
X010375Y014292D01*
X010375Y014450D02*
X009700Y014450D01*
X009613Y014825D02*
X009458Y014761D01*
X008771Y014761D01*
X008617Y014825D01*
X008499Y014944D01*
X008435Y015098D01*
X008435Y015265D01*
X008499Y015419D01*
X008617Y015537D01*
X008771Y015601D01*
X009458Y015601D01*
X009613Y015537D01*
X009731Y015419D01*
X009795Y015265D01*
X009795Y015098D01*
X009731Y014944D01*
X009613Y014825D01*
X009713Y014926D02*
X010375Y014926D01*
X010375Y015084D02*
X009789Y015084D01*
X009795Y015243D02*
X010375Y015243D01*
X010375Y015402D02*
X009738Y015402D01*
X009558Y015560D02*
X010375Y015560D01*
X010375Y015719D02*
X008853Y015719D01*
X008672Y015560D02*
X008616Y015560D01*
X008491Y015402D02*
X008378Y015402D01*
X008435Y015243D02*
X008140Y015243D01*
X007902Y015084D02*
X008440Y015084D01*
X008516Y014926D02*
X005199Y014926D01*
X005145Y014767D02*
X008757Y014767D01*
X008530Y014450D02*
X005145Y014450D01*
X005145Y014292D02*
X008446Y014292D01*
X008435Y014133D02*
X004909Y014133D01*
X005067Y013975D02*
X008486Y013975D01*
X008639Y013816D02*
X005133Y013816D01*
X005023Y013341D02*
X007927Y013341D01*
X008115Y013181D02*
X006115Y011681D01*
X004615Y011681D01*
X004115Y011181D01*
X001115Y011181D01*
X001487Y010804D02*
X004092Y010804D01*
X004085Y010645D02*
X001095Y010645D01*
X001095Y010487D02*
X001916Y010487D01*
X001788Y010328D02*
X001095Y010328D01*
X001095Y010170D02*
X001757Y010170D01*
X001798Y010011D02*
X001095Y010011D01*
X001095Y009853D02*
X001973Y009853D01*
X001645Y009535D02*
X003294Y009535D01*
X003615Y009681D02*
X002115Y010181D01*
X002442Y010328D02*
X004218Y010328D01*
X004122Y010487D02*
X002313Y010487D01*
X002909Y010170D02*
X004465Y010170D01*
X004615Y010681D02*
X006115Y010681D01*
X007615Y012181D01*
X009115Y012181D01*
X008529Y011914D02*
X007686Y011914D01*
X007325Y012231D02*
X007247Y012231D01*
X007166Y012072D02*
X007036Y012072D01*
X007008Y011914D02*
X006824Y011914D01*
X006849Y011755D02*
X006613Y011755D01*
X006691Y011597D02*
X006402Y011597D01*
X006532Y011438D02*
X006132Y011438D01*
X006122Y011438D02*
X005088Y011438D01*
X004962Y011279D02*
X006373Y011279D01*
X006215Y011121D02*
X004925Y011121D01*
X005072Y010962D02*
X006056Y010962D01*
X006236Y012072D02*
X004974Y012072D01*
X004930Y012231D02*
X006447Y012231D01*
X006659Y012389D02*
X005082Y012389D01*
X005150Y012548D02*
X006870Y012548D01*
X007081Y012706D02*
X005165Y012706D01*
X005133Y012865D02*
X007293Y012865D01*
X007504Y013023D02*
X005046Y013023D01*
X004844Y013182D02*
X007716Y013182D01*
X007489Y012389D02*
X007459Y012389D01*
X009652Y012865D02*
X010755Y012865D01*
X010675Y013023D02*
X009764Y013023D01*
X009795Y013182D02*
X010596Y013182D01*
X010517Y013341D02*
X009763Y013341D01*
X009651Y013499D02*
X010438Y013499D01*
X010974Y013499D02*
X011579Y013499D01*
X011466Y013341D02*
X011054Y013341D01*
X011133Y013182D02*
X011435Y013182D01*
X011466Y013023D02*
X011212Y013023D01*
X010375Y014609D02*
X005145Y014609D01*
X004615Y014681D02*
X005115Y015181D01*
X007615Y015181D01*
X009115Y016181D01*
X008591Y016511D02*
X006610Y016511D01*
X006610Y016670D02*
X010375Y016670D01*
X010375Y016828D02*
X006610Y016828D01*
X006486Y016353D02*
X008471Y016353D01*
X008435Y016194D02*
X006328Y016194D01*
X006115Y016194D02*
X006115Y016194D01*
X006115Y016353D02*
X006115Y016353D01*
X006115Y016511D02*
X006115Y016511D01*
X006115Y016670D02*
X006115Y016670D01*
X005743Y016353D02*
X005458Y016353D01*
X005590Y016511D02*
X005620Y016511D01*
X005620Y016670D02*
X005590Y016670D01*
X005601Y016828D02*
X005620Y016828D01*
X005615Y017181D02*
X007115Y017181D01*
X007615Y017681D01*
X007952Y017938D02*
X010019Y017938D01*
X010177Y017780D02*
X008035Y017780D01*
X008035Y017621D02*
X010336Y017621D01*
X010375Y017463D02*
X007990Y017463D01*
X007831Y017304D02*
X010375Y017304D01*
X010375Y017146D02*
X007418Y017146D01*
X007260Y016987D02*
X010375Y016987D01*
X010375Y016511D02*
X009639Y016511D01*
X009758Y016353D02*
X010375Y016353D01*
X010375Y016194D02*
X009795Y016194D01*
X009769Y016036D02*
X010375Y016036D01*
X010375Y015877D02*
X009665Y015877D01*
X009473Y014767D02*
X010375Y014767D01*
X010855Y014926D02*
X011496Y014926D01*
X011425Y015084D02*
X010855Y015084D01*
X010855Y015243D02*
X011419Y015243D01*
X011473Y015402D02*
X010855Y015402D01*
X010855Y015560D02*
X011629Y015560D01*
X012115Y015560D02*
X012115Y015560D01*
X012115Y015402D02*
X012115Y015402D01*
X012115Y015243D02*
X012115Y015243D01*
X012115Y015084D02*
X012115Y015084D01*
X012115Y014926D02*
X012115Y014926D01*
X012115Y014767D02*
X012115Y014767D01*
X012665Y015877D02*
X019820Y015877D01*
X019820Y016036D02*
X012769Y016036D01*
X012795Y016194D02*
X019820Y016194D01*
X019820Y016353D02*
X012758Y016353D01*
X012639Y016511D02*
X019820Y016511D01*
X019820Y016670D02*
X010855Y016670D01*
X010855Y016828D02*
X011031Y016828D01*
X011115Y017181D02*
X013115Y017181D01*
X012615Y017681D02*
X013115Y018181D01*
X013049Y018414D02*
X010181Y018414D01*
X010380Y018255D02*
X012849Y018255D01*
X012436Y018097D02*
X010539Y018097D01*
X010697Y017938D02*
X012278Y017938D01*
X012195Y017780D02*
X010834Y017780D01*
X010855Y017621D02*
X012195Y017621D01*
X012240Y017463D02*
X011340Y017463D01*
X010890Y017463D02*
X010855Y017463D01*
X010817Y018731D02*
X009646Y018731D01*
X009665Y018890D02*
X010662Y018890D01*
X010596Y019048D02*
X009665Y019048D01*
X009665Y019207D02*
X010585Y019207D01*
X010617Y019365D02*
X009665Y019365D01*
X009135Y019048D02*
X009095Y019048D01*
X009095Y018890D02*
X009135Y018890D01*
X009135Y018731D02*
X009095Y018731D01*
X008583Y018731D02*
X008412Y018731D01*
X007278Y017938D02*
X004048Y017938D01*
X004051Y018097D02*
X006860Y018097D01*
X006701Y018255D02*
X005889Y018255D01*
X005820Y018186D02*
X006110Y018476D01*
X006110Y018681D01*
X005615Y018681D01*
X005615Y018186D01*
X005820Y018186D01*
X005615Y018186D02*
X005615Y018681D01*
X005615Y018681D01*
X005615Y018682D01*
X005615Y019176D01*
X005410Y019176D01*
X005120Y018886D01*
X005120Y018682D01*
X005614Y018682D01*
X005614Y018681D01*
X005120Y018681D01*
X005120Y018476D01*
X005410Y018186D01*
X005615Y018186D01*
X005615Y018255D02*
X005615Y018255D01*
X005615Y018414D02*
X005615Y018414D01*
X005615Y018572D02*
X005615Y018572D01*
X005615Y018731D02*
X005615Y018731D01*
X005615Y018890D02*
X005615Y018890D01*
X005615Y019048D02*
X005615Y019048D01*
X005750Y019207D02*
X003979Y019207D01*
X004138Y019365D02*
X005592Y019365D01*
X005615Y019681D02*
X007115Y018181D01*
X007195Y017780D02*
X004126Y017780D01*
X004132Y017621D02*
X007195Y017621D01*
X007057Y017463D02*
X004076Y017463D01*
X004011Y017304D02*
X005398Y017304D01*
X005615Y017181D02*
X005115Y016681D01*
X004772Y016353D02*
X002336Y016353D01*
X002336Y016194D02*
X005902Y016194D01*
X005019Y015402D02*
X004210Y015402D01*
X004115Y015181D02*
X004615Y014681D01*
X004085Y014609D02*
X002882Y014609D01*
X003040Y014767D02*
X004085Y014767D01*
X004085Y014872D02*
X004085Y014245D01*
X004179Y014151D01*
X004365Y014151D01*
X004315Y014131D01*
X004165Y013982D01*
X004085Y013787D01*
X004085Y013576D01*
X004165Y013381D01*
X004315Y013232D01*
X004409Y013193D01*
X004404Y013191D01*
X004327Y013152D01*
X004256Y013101D01*
X004195Y013040D01*
X004144Y012970D01*
X004105Y012893D01*
X004078Y012810D01*
X004065Y012725D01*
X004065Y012701D01*
X004595Y012701D01*
X004595Y012661D01*
X004065Y012661D01*
X004065Y012638D01*
X004078Y012553D01*
X004105Y012470D01*
X004144Y012393D01*
X004195Y012323D01*
X004256Y012262D01*
X004327Y012211D01*
X004404Y012172D01*
X004409Y012170D01*
X004315Y012131D01*
X004165Y011982D01*
X004085Y011787D01*
X004085Y011576D01*
X004110Y011516D01*
X004015Y011421D01*
X001589Y011421D01*
X001564Y011482D01*
X001415Y011631D01*
X001293Y011681D01*
X001415Y011732D01*
X001564Y011881D01*
X001589Y011941D01*
X001848Y011941D01*
X001912Y011878D01*
X002044Y011823D01*
X002186Y011823D01*
X002318Y011878D01*
X002418Y011979D01*
X002473Y012110D01*
X002473Y012253D01*
X002418Y012384D01*
X002318Y012485D01*
X002186Y012539D01*
X002044Y012539D01*
X001912Y012485D01*
X001848Y012421D01*
X001589Y012421D01*
X001564Y012482D01*
X001415Y012631D01*
X001293Y012681D01*
X001415Y012732D01*
X001564Y012881D01*
X001589Y012941D01*
X002348Y012941D01*
X002412Y012878D01*
X002544Y012823D01*
X002686Y012823D01*
X002818Y012878D01*
X002918Y012979D01*
X002973Y013110D01*
X002973Y013253D01*
X002918Y013384D01*
X002818Y013485D01*
X002686Y013539D01*
X002544Y013539D01*
X002412Y013485D01*
X002348Y013421D01*
X001589Y013421D01*
X001564Y013482D01*
X001415Y013631D01*
X001365Y013651D01*
X001551Y013651D01*
X001645Y013745D01*
X001645Y013941D01*
X002067Y013941D01*
X002163Y013941D01*
X002251Y013978D01*
X003096Y014823D01*
X003186Y014823D01*
X003318Y014878D01*
X003381Y014941D01*
X004015Y014941D01*
X004085Y014872D01*
X004031Y014926D02*
X003366Y014926D01*
X003115Y015181D02*
X002115Y014181D01*
X001115Y014181D01*
X001095Y014767D02*
X002361Y014767D01*
X002203Y014609D02*
X001645Y014609D01*
X001645Y014450D02*
X002044Y014450D01*
X002406Y014133D02*
X004321Y014133D01*
X004163Y013975D02*
X002243Y013975D01*
X002565Y014292D02*
X004085Y014292D01*
X004085Y014450D02*
X002723Y014450D01*
X002520Y014926D02*
X001095Y014926D01*
X001095Y015084D02*
X002678Y015084D01*
X002757Y015243D02*
X001095Y015243D01*
X001095Y015402D02*
X002829Y015402D01*
X003115Y015181D02*
X004115Y015181D01*
X004393Y015243D02*
X004837Y015243D01*
X004640Y016511D02*
X002285Y016511D01*
X002209Y016670D02*
X003408Y016670D01*
X003304Y016828D02*
X002050Y016828D01*
X002728Y017146D02*
X001095Y017146D01*
X001095Y017304D02*
X002677Y017304D01*
X002689Y017463D02*
X001095Y017463D01*
X001095Y017621D02*
X002774Y017621D01*
X002766Y017780D02*
X001095Y017780D01*
X001095Y017938D02*
X002686Y017938D01*
X002677Y018097D02*
X001095Y018097D01*
X001095Y018255D02*
X002732Y018255D01*
X002866Y018414D02*
X001798Y018414D01*
X001431Y018414D02*
X001095Y018414D01*
X001095Y018572D02*
X001141Y018572D01*
X002088Y018572D02*
X002871Y018572D01*
X002876Y018731D02*
X002235Y018731D01*
X002300Y018890D02*
X002984Y018890D01*
X003142Y019048D02*
X002336Y019048D01*
X002336Y019207D02*
X003301Y019207D01*
X003459Y019365D02*
X002293Y019365D01*
X003115Y018681D02*
X004115Y019681D01*
X005615Y019681D01*
X005281Y019048D02*
X004920Y019048D01*
X004812Y019156D02*
X004418Y019156D01*
X004140Y018878D01*
X004140Y018485D01*
X004418Y018206D01*
X004812Y018206D01*
X005090Y018485D01*
X005090Y018878D01*
X004812Y019156D01*
X005078Y018890D02*
X005123Y018890D01*
X005120Y018731D02*
X005090Y018731D01*
X005090Y018572D02*
X005120Y018572D01*
X005182Y018414D02*
X005019Y018414D01*
X004860Y018255D02*
X005341Y018255D01*
X006047Y018414D02*
X006543Y018414D01*
X006384Y018572D02*
X006110Y018572D01*
X006110Y018731D02*
X006226Y018731D01*
X004907Y017146D02*
X004121Y017146D01*
X004152Y016987D02*
X004749Y016987D01*
X004640Y016828D02*
X004125Y016828D01*
X004022Y016670D02*
X004640Y016670D01*
X003715Y016670D02*
X003715Y016670D01*
X003715Y016828D02*
X003715Y016828D01*
X002884Y016987D02*
X001095Y016987D01*
X001095Y016828D02*
X001179Y016828D01*
X001121Y015719D02*
X001095Y015719D01*
X001095Y015560D02*
X001383Y015560D01*
X001847Y015560D02*
X007750Y015560D01*
X007988Y015719D02*
X002109Y015719D01*
X002243Y015877D02*
X008226Y015877D01*
X008461Y016036D02*
X002309Y016036D01*
X003095Y018041D02*
X003115Y018681D01*
X003351Y018572D02*
X003355Y018572D01*
X003504Y018731D02*
X003540Y018731D01*
X003662Y018890D02*
X004151Y018890D01*
X004140Y018731D02*
X003889Y018731D01*
X004075Y018572D02*
X004140Y018572D01*
X004132Y018414D02*
X004211Y018414D01*
X004127Y018255D02*
X004369Y018255D01*
X004310Y019048D02*
X003821Y019048D01*
X004097Y013816D02*
X001645Y013816D01*
X001557Y013658D02*
X004085Y013658D01*
X004117Y013499D02*
X002784Y013499D01*
X002936Y013341D02*
X004206Y013341D01*
X004386Y013182D02*
X002973Y013182D01*
X002937Y013023D02*
X004184Y013023D01*
X004096Y012865D02*
X002786Y012865D01*
X002443Y012865D02*
X001548Y012865D01*
X001353Y012706D02*
X004065Y012706D01*
X004080Y012548D02*
X001498Y012548D01*
X001115Y012181D02*
X002115Y012181D01*
X002353Y011914D02*
X004137Y011914D01*
X004085Y011755D02*
X001438Y011755D01*
X001449Y011597D02*
X004085Y011597D01*
X004032Y011438D02*
X001582Y011438D01*
X001577Y011914D02*
X001876Y011914D01*
X002413Y012389D02*
X004147Y012389D01*
X004299Y012231D02*
X002473Y012231D01*
X002457Y012072D02*
X004256Y012072D01*
X002615Y013181D02*
X001115Y013181D01*
X001547Y013499D02*
X002446Y013499D01*
X002342Y009853D02*
X002257Y009853D01*
X002818Y009694D02*
X001568Y009694D01*
X002615Y008681D02*
X005615Y008681D01*
X007115Y009681D01*
X007255Y010011D02*
X007827Y010011D01*
X007695Y009853D02*
X007431Y009853D01*
X007473Y009694D02*
X007563Y009694D01*
X006615Y007181D02*
X005615Y006181D01*
X001115Y006181D01*
X001523Y006523D02*
X005617Y006523D01*
X005776Y006682D02*
X001293Y006682D01*
X001523Y006840D02*
X005934Y006840D01*
X005979Y006206D02*
X006839Y006206D01*
X006737Y006048D02*
X005820Y006048D01*
X006717Y005889D02*
X003501Y005889D01*
X003535Y005730D02*
X006763Y005730D01*
X006915Y005572D02*
X003535Y005572D01*
X003441Y005413D02*
X006759Y005413D01*
X006702Y005255D02*
X001095Y005255D01*
X001095Y005413D02*
X002789Y005413D01*
X002695Y005572D02*
X001095Y005572D01*
X001411Y005730D02*
X002695Y005730D01*
X002728Y005889D02*
X001567Y005889D01*
X001095Y005096D02*
X006707Y005096D01*
X006697Y005192D02*
X007114Y005192D01*
X007114Y005192D01*
X006697Y005192D01*
X006783Y004938D02*
X001095Y004938D01*
X001095Y004779D02*
X003873Y004779D01*
X003715Y004621D02*
X001642Y004621D01*
X001645Y004462D02*
X003556Y004462D01*
X003615Y004181D02*
X004115Y004681D01*
X005615Y004681D01*
X007115Y003181D01*
X007615Y003181D01*
X007808Y003035D02*
X008461Y003035D01*
X008471Y002877D02*
X005010Y002877D01*
X005110Y002976D02*
X004820Y002686D01*
X004615Y002686D01*
X004615Y003181D01*
X004615Y003181D01*
X004615Y003182D01*
X004615Y003182D01*
X004615Y003676D01*
X004820Y003676D01*
X005110Y003386D01*
X005110Y003182D01*
X004615Y003182D01*
X004615Y003676D01*
X004410Y003676D01*
X004120Y003386D01*
X004120Y003182D01*
X004614Y003182D01*
X004614Y003181D01*
X004120Y003181D01*
X004120Y002976D01*
X004410Y002686D01*
X004615Y002686D01*
X004615Y003181D01*
X005110Y003181D01*
X005110Y002976D01*
X005110Y003035D02*
X006922Y003035D01*
X006763Y003194D02*
X005110Y003194D01*
X005110Y003352D02*
X006604Y003352D01*
X006446Y003511D02*
X004985Y003511D01*
X004827Y003669D02*
X006287Y003669D01*
X006129Y003828D02*
X004933Y003828D01*
X005090Y003986D02*
X005970Y003986D01*
X005812Y004145D02*
X005090Y004145D01*
X005090Y004304D02*
X005653Y004304D01*
X006015Y004621D02*
X006758Y004621D01*
X006717Y004462D02*
X006174Y004462D01*
X006332Y004304D02*
X006742Y004304D01*
X006850Y004145D02*
X006491Y004145D01*
X006888Y004779D02*
X005856Y004779D01*
X007115Y005192D02*
X007115Y005192D01*
X008355Y003986D02*
X008481Y003986D01*
X008435Y004145D02*
X008418Y004145D01*
X008355Y003828D02*
X008614Y003828D01*
X008471Y003352D02*
X008125Y003352D01*
X007967Y003194D02*
X008435Y003194D01*
X008312Y002718D02*
X004851Y002718D01*
X004615Y002718D02*
X004615Y002718D01*
X004615Y002877D02*
X004615Y002877D01*
X004615Y003035D02*
X004615Y003035D01*
X004615Y003194D02*
X004615Y003194D01*
X004615Y003352D02*
X004615Y003352D01*
X004615Y003511D02*
X004615Y003511D01*
X004615Y003669D02*
X004615Y003669D01*
X004403Y003669D02*
X001569Y003669D01*
X001535Y003511D02*
X004244Y003511D01*
X004120Y003352D02*
X002283Y003352D01*
X002442Y003194D02*
X004120Y003194D01*
X004120Y003035D02*
X002600Y003035D01*
X002759Y002877D02*
X004220Y002877D01*
X004378Y002718D02*
X002917Y002718D01*
X003076Y002560D02*
X008154Y002560D01*
X008115Y002181D02*
X003115Y002181D01*
X002115Y003181D01*
X001115Y003181D01*
X001381Y002718D02*
X002239Y002718D01*
X002397Y002560D02*
X001514Y002560D01*
X001620Y002401D02*
X002556Y002401D01*
X002714Y002242D02*
X001662Y002242D01*
X001615Y002181D02*
X001115Y002181D01*
X001602Y001925D02*
X009429Y001925D01*
X009595Y001925D02*
X009635Y001925D01*
X009635Y001767D02*
X009595Y001767D01*
X009595Y001608D02*
X009635Y001608D01*
X009635Y001450D02*
X009595Y001450D01*
X009595Y001291D02*
X009635Y001291D01*
X010095Y001291D02*
X010155Y001291D01*
X010155Y001133D02*
X010095Y001133D01*
X010095Y000974D02*
X010155Y000974D01*
X010155Y000816D02*
X010090Y000816D01*
X010095Y001450D02*
X010155Y001450D01*
X010169Y001608D02*
X010078Y001608D01*
X010001Y001767D02*
X010250Y001767D01*
X010485Y001925D02*
X009801Y001925D01*
X009229Y001767D02*
X001478Y001767D01*
X001437Y001608D02*
X005343Y001608D01*
X005186Y001450D02*
X001577Y001450D01*
X001643Y001291D02*
X005121Y001291D01*
X005111Y001133D02*
X001645Y001133D01*
X001661Y000974D02*
X002814Y000974D01*
X003115Y000681D02*
X006115Y000681D01*
X006615Y001181D01*
X007100Y001133D02*
X009135Y001133D01*
X009135Y001291D02*
X007100Y001291D01*
X007100Y001450D02*
X009135Y001450D01*
X009151Y001608D02*
X007064Y001608D01*
X007100Y000974D02*
X009135Y000974D01*
X009139Y000816D02*
X007100Y000816D01*
X006130Y001133D02*
X006118Y001133D01*
X006109Y001291D02*
X006130Y001291D01*
X006130Y001450D02*
X006044Y001450D01*
X006165Y001608D02*
X005886Y001608D01*
X005615Y001608D02*
X005615Y001608D01*
X005615Y001450D02*
X005615Y001450D01*
X005615Y001291D02*
X005615Y001291D01*
X005154Y000974D02*
X003416Y000974D01*
X003115Y000681D02*
X001615Y000681D01*
X001115Y001181D01*
X001656Y002084D02*
X002873Y002084D01*
X002080Y002877D02*
X001560Y002877D01*
X001645Y003828D02*
X004297Y003828D01*
X004140Y003986D02*
X003759Y003986D01*
X003918Y004145D02*
X004140Y004145D01*
X004140Y004304D02*
X004076Y004304D01*
X003615Y004181D02*
X001115Y004181D01*
X008893Y004621D02*
X012836Y004621D01*
X012688Y004462D02*
X012995Y004462D01*
X013153Y004304D02*
X012832Y004304D01*
X012678Y004779D02*
X012501Y004779D01*
X012615Y005181D02*
X012115Y005181D01*
X012615Y005181D02*
X013615Y004181D01*
X019615Y004181D01*
X019820Y004779D02*
X013356Y004779D01*
X011542Y004462D02*
X009688Y004462D01*
X009779Y004304D02*
X011451Y004304D01*
X011435Y004145D02*
X009795Y004145D01*
X009749Y003986D02*
X011481Y003986D01*
X011614Y003828D02*
X009615Y003828D01*
X009639Y003511D02*
X011590Y003511D01*
X011471Y003352D02*
X009759Y003352D01*
X009795Y003194D02*
X011435Y003194D01*
X011461Y003035D02*
X009769Y003035D01*
X009664Y002877D02*
X011566Y002877D01*
X011485Y001925D02*
X010745Y001925D01*
X010980Y001767D02*
X011250Y001767D01*
X011169Y001608D02*
X011060Y001608D01*
X011075Y001450D02*
X011155Y001450D01*
X011155Y001291D02*
X011075Y001291D01*
X011075Y001133D02*
X011155Y001133D01*
X011155Y000974D02*
X011075Y000974D01*
X011075Y000816D02*
X011155Y000816D01*
X011980Y001767D02*
X013499Y001767D01*
X013697Y001608D02*
X012060Y001608D01*
X012075Y001450D02*
X013895Y001450D01*
X014093Y001291D02*
X012075Y001291D01*
X012075Y001133D02*
X014292Y001133D01*
X014488Y000974D02*
X012075Y000974D01*
X012075Y000816D02*
X016809Y000816D01*
X017421Y000816D02*
X019231Y000816D01*
X016870Y001608D02*
X014465Y001608D01*
X014267Y001767D02*
X016829Y001767D01*
X016671Y001925D02*
X014069Y001925D01*
X013871Y002084D02*
X016620Y002084D01*
X016620Y002242D02*
X013673Y002242D01*
X013474Y002401D02*
X016634Y002401D01*
X016711Y001450D02*
X014663Y001450D01*
X013301Y001925D02*
X011745Y001925D01*
X018356Y016828D02*
X019820Y016828D01*
X019820Y016987D02*
X018514Y016987D01*
X018535Y017146D02*
X019820Y017146D01*
X019820Y017304D02*
X018535Y017304D01*
X015142Y019048D02*
X015055Y019048D01*
X015055Y019207D02*
X015195Y019207D01*
X015205Y019365D02*
X015053Y019365D01*
X014615Y019048D02*
X014615Y019048D01*
X014615Y018890D02*
X014615Y018890D01*
X014825Y018731D02*
X013646Y018731D01*
X013665Y018890D02*
X014284Y018890D01*
X014175Y019048D02*
X013665Y019048D01*
X013665Y019207D02*
X014175Y019207D01*
X014176Y019365D02*
X013665Y019365D01*
X013135Y019048D02*
X013095Y019048D01*
X013095Y018890D02*
X013135Y018890D01*
X013135Y018731D02*
X013095Y018731D01*
X012583Y018731D02*
X012412Y018731D01*
X011817Y018731D02*
X011412Y018731D01*
X011568Y018890D02*
X011662Y018890D01*
X014945Y018890D02*
X014984Y018890D01*
D23*
X013115Y017181D03*
X011115Y017181D03*
X016115Y013181D03*
X013615Y012181D03*
X013615Y010181D03*
X013115Y007681D03*
X016115Y009181D03*
X007615Y011181D03*
X007115Y009681D03*
X004615Y009181D03*
X002615Y008681D03*
X002115Y010181D03*
X002115Y012181D03*
X002615Y013181D03*
X003115Y015181D03*
M02*
